<svg xmlns="http://www.w3.org/2000/svg" viewBox="0 0 1140 880" font-family="'Segoe UI','Noto Sans SC',Arial,sans-serif">
  <defs>
    <filter id="sh"><feDropShadow dx="2" dy="2" stdDeviation="3" flood-opacity="0.15"/></filter>
    <!-- Gradients -->
    <linearGradient id="hdrTask" x1="0" y1="0" x2="0" y2="1">
      <stop offset="0%" stop-color="#2563eb"/><stop offset="100%" stop-color="#1d4ed8"/>
    </linearGradient>
    <linearGradient id="hdrKhung" x1="0" y1="0" x2="0" y2="1">
      <stop offset="0%" stop-color="#dc2626"/><stop offset="100%" stop-color="#b91c1c"/>
    </linearGradient>
    <linearGradient id="hdrBlocker" x1="0" y1="0" x2="0" y2="1">
      <stop offset="0%" stop-color="#059669"/><stop offset="100%" stop-color="#047857"/>
    </linearGradient>
    <linearGradient id="hdrSysctl" x1="0" y1="0" x2="0" y2="1">
      <stop offset="0%" stop-color="#7c3aed"/><stop offset="100%" stop-color="#6d28d9"/>
    </linearGradient>
    <linearGradient id="hdrLock" x1="0" y1="0" x2="0" y2="1">
      <stop offset="0%" stop-color="#ea580c"/><stop offset="100%" stop-color="#c2410c"/>
    </linearGradient>
    <linearGradient id="hdrNotif" x1="0" y1="0" x2="0" y2="1">
      <stop offset="0%" stop-color="#0891b2"/><stop offset="100%" stop-color="#0e7490"/>
    </linearGradient>
    <!-- Arrow markers -->
    <marker id="aBlu" markerWidth="10" markerHeight="7" refX="9" refY="3.5" orient="auto">
      <path d="M1,1 L9,3.5 L1,6" fill="none" stroke="#2563eb" stroke-width="1.5" stroke-linejoin="round"/>
    </marker>
    <marker id="aRed" markerWidth="10" markerHeight="7" refX="9" refY="3.5" orient="auto">
      <path d="M1,1 L9,3.5 L1,6" fill="none" stroke="#dc2626" stroke-width="1.5" stroke-linejoin="round"/>
    </marker>
    <marker id="aGrn" markerWidth="10" markerHeight="7" refX="9" refY="3.5" orient="auto">
      <path d="M1,1 L9,3.5 L1,6" fill="none" stroke="#059669" stroke-width="1.5" stroke-linejoin="round"/>
    </marker>
    <marker id="aPrp" markerWidth="10" markerHeight="7" refX="9" refY="3.5" orient="auto">
      <path d="M1,1 L9,3.5 L1,6" fill="none" stroke="#7c3aed" stroke-width="1.5" stroke-linejoin="round"/>
    </marker>
    <marker id="aOrg" markerWidth="10" markerHeight="7" refX="9" refY="3.5" orient="auto">
      <path d="M1,1 L9,3.5 L1,6" fill="none" stroke="#ea580c" stroke-width="1.5" stroke-linejoin="round"/>
    </marker>
    <marker id="aCyn" markerWidth="10" markerHeight="7" refX="9" refY="3.5" orient="auto">
      <path d="M1,1 L9,3.5 L1,6" fill="none" stroke="#0891b2" stroke-width="1.5" stroke-linejoin="round"/>
    </marker>
    <marker id="aGry" markerWidth="10" markerHeight="7" refX="9" refY="3.5" orient="auto">
      <path d="M1,1 L9,3.5 L1,6" fill="none" stroke="#6b7280" stroke-width="1.5" stroke-linejoin="round"/>
    </marker>
    <!-- Diamond markers (composition) -->
    <marker id="dBlu" markerWidth="12" markerHeight="8" refX="1" refY="4" orient="auto">
      <path d="M1,4 L6,1 L11,4 L6,7 Z" fill="#fff" stroke="#2563eb" stroke-width="1.2"/>
    </marker>
    <marker id="dRed" markerWidth="12" markerHeight="8" refX="1" refY="4" orient="auto">
      <path d="M1,4 L6,1 L11,4 L6,7 Z" fill="#fff" stroke="#dc2626" stroke-width="1.2"/>
    </marker>
  </defs>

  <!-- Title -->
  <text x="570" y="32" text-anchor="middle" font-size="18" font-weight="bold" fill="#1e293b">Hung Task 检测机制 — 关键数据结构关系</text>
  <text x="570" y="52" text-anchor="middle" font-size="11" fill="#64748b">include/linux/sched.h · kernel/hung_task.c · include/linux/hung_task.h</text>

  <!-- ============ 1. task_struct (center top) ============ -->
  <g transform="translate(80,75)" filter="url(#sh)">
    <rect width="380" height="330" rx="8" fill="#fff" stroke="#2563eb" stroke-width="2"/>
    <rect width="380" height="32" rx="8" fill="url(#hdrTask)"/>
    <rect y="24" width="380" height="8" fill="#2563eb"/>
    <text x="190" y="22" text-anchor="middle" fill="#fff" font-size="14" font-weight="bold">task_struct</text>
    <text x="15" y="50" font-size="10" fill="#2563eb" font-weight="bold">include/linux/sched.h — 进程描述符</text>
    <line x1="10" y1="56" x2="370" y2="56" stroke="#bfdbfe" stroke-width="0.8"/>

    <!-- Task state -->
    <text x="15" y="74" font-size="11" fill="#1e40af" font-weight="bold" font-family="monospace">__state</text>
    <text x="365" y="74" text-anchor="end" font-size="10" fill="#6b7280">unsigned int — 进程状态</text>
    <line x1="10" y1="80" x2="370" y2="80" stroke="#e2e8f0" stroke-width="0.5"/>

    <!-- Context switch counts -->
    <text x="15" y="97" font-size="11" fill="#374151" font-family="monospace">nvcsw</text>
    <text x="365" y="97" text-anchor="end" font-size="10" fill="#6b7280">unsigned long — 自愿切换计数</text>
    <text x="15" y="115" font-size="11" fill="#374151" font-family="monospace">nivcsw</text>
    <text x="365" y="115" text-anchor="end" font-size="10" fill="#6b7280">unsigned long — 非自愿切换计数</text>
    <line x1="10" y1="121" x2="370" y2="121" stroke="#e2e8f0" stroke-width="0.5"/>

    <!-- Hung task fields (highlighted) -->
    <rect x="10" y="126" width="360" height="62" rx="4" fill="#eff6ff" stroke="#93c5fd" stroke-width="0.8"/>
    <text x="20" y="142" font-size="10" fill="#1d4ed8" font-weight="bold">#ifdef CONFIG_DETECT_HUNG_TASK</text>
    <text x="20" y="160" font-size="11" fill="#dc2626" font-weight="bold" font-family="monospace">last_switch_count</text>
    <text x="365" y="160" text-anchor="end" font-size="10" fill="#6b7280">unsigned long</text>
    <text x="20" y="178" font-size="11" fill="#dc2626" font-weight="bold" font-family="monospace">last_switch_time</text>
    <text x="365" y="178" text-anchor="end" font-size="10" fill="#6b7280">unsigned long (jiffies)</text>
    <line x1="10" y1="192" x2="370" y2="192" stroke="#e2e8f0" stroke-width="0.5"/>

    <!-- Blocker field (highlighted) -->
    <rect x="10" y="197" width="360" height="48" rx="4" fill="#ecfdf5" stroke="#6ee7b7" stroke-width="0.8"/>
    <text x="20" y="213" font-size="10" fill="#047857" font-weight="bold">#ifdef CONFIG_DETECT_HUNG_TASK_BLOCKER</text>
    <text x="20" y="233" font-size="11" fill="#059669" font-weight="bold" font-family="monospace">blocker</text>
    <text x="365" y="233" text-anchor="end" font-size="10" fill="#6b7280">unsigned long — 编码锁地址+类型</text>
    <line x1="10" y1="249" x2="370" y2="249" stroke="#e2e8f0" stroke-width="0.5"/>

    <!-- Other fields -->
    <text x="15" y="268" font-size="11" fill="#374151" font-family="monospace">comm[TASK_COMM_LEN]</text>
    <text x="365" y="268" text-anchor="end" font-size="10" fill="#6b7280">char[16] — 进程名</text>
    <text x="15" y="286" font-size="11" fill="#374151" font-family="monospace">pid</text>
    <text x="365" y="286" text-anchor="end" font-size="10" fill="#6b7280">pid_t — 进程ID</text>
    <text x="15" y="304" font-size="11" fill="#374151" font-family="monospace">flags</text>
    <text x="365" y="304" text-anchor="end" font-size="10" fill="#6b7280">unsigned int (PF_POSTCOREDUMP)</text>
    <text x="15" y="322" font-size="11" fill="#6b7280" font-family="monospace">blocked_on</text>
    <text x="365" y="322" text-anchor="end" font-size="10" fill="#6b7280">struct mutex * — 调试用</text>
  </g>

  <!-- ============ 2. blocker 编码详解 (right top) ============ -->
  <g transform="translate(640,75)" filter="url(#sh)">
    <rect width="460" height="225" rx="8" fill="#fff" stroke="#059669" stroke-width="2"/>
    <rect width="460" height="32" rx="8" fill="url(#hdrBlocker)"/>
    <rect y="24" width="460" height="8" fill="#059669"/>
    <text x="230" y="22" text-anchor="middle" fill="#fff" font-size="14" font-weight="bold">blocker 编码机制</text>
    <text x="15" y="50" font-size="10" fill="#059669" font-weight="bold">include/linux/hung_task.h — 低2位类型编码</text>
    <line x1="10" y1="56" x2="450" y2="56" stroke="#a7f3d0" stroke-width="0.8"/>

    <!-- Bit layout diagram -->
    <text x="15" y="75" font-size="10" fill="#374151" font-weight="bold">64-bit blocker 字段布局：</text>
    <!-- Bit boxes -->
    <rect x="15" y="82" width="340" height="28" rx="3" fill="#f0fdf4" stroke="#059669" stroke-width="1"/>
    <rect x="355" y="82" width="50" height="28" rx="3" fill="#d1fae5" stroke="#059669" stroke-width="1.5"/>
    <text x="185" y="100" text-anchor="middle" font-size="10" fill="#374151" font-family="monospace">锁地址 (高62位)</text>
    <text x="380" y="100" text-anchor="middle" font-size="10" fill="#059669" font-weight="bold" font-family="monospace">类型</text>
    <text x="185" y="122" text-anchor="middle" font-size="9" fill="#6b7280">bit[63:2] = lock_addr &amp; ~0x03</text>
    <text x="380" y="122" text-anchor="middle" font-size="9" fill="#6b7280">bit[1:0]</text>

    <line x1="10" y1="130" x2="450" y2="130" stroke="#e2e8f0" stroke-width="0.5"/>

    <!-- Type encoding table -->
    <text x="15" y="146" font-size="10" fill="#374151" font-weight="bold">BLOCKER_TYPE_MASK = 0x03</text>
    <text x="25" y="164" font-size="11" fill="#374151" font-family="monospace">00</text>
    <text x="60" y="164" font-size="10" fill="#374151">BLOCKER_TYPE_MUTEX</text>
    <text x="260" y="164" font-size="10" fill="#6b7280">mutex 互斥锁</text>
    <text x="25" y="182" font-size="11" fill="#374151" font-family="monospace">01</text>
    <text x="60" y="182" font-size="10" fill="#374151">BLOCKER_TYPE_SEM</text>
    <text x="260" y="182" font-size="10" fill="#6b7280">semaphore 信号量</text>
    <text x="25" y="200" font-size="11" fill="#374151" font-family="monospace">10</text>
    <text x="60" y="200" font-size="10" fill="#374151">BLOCKER_TYPE_RWSEM_READER</text>
    <text x="360" y="200" font-size="10" fill="#6b7280">rwsem 读端</text>
    <text x="25" y="218" font-size="11" fill="#374151" font-family="monospace">11</text>
    <text x="60" y="218" font-size="10" fill="#374151">BLOCKER_TYPE_RWSEM_WRITER</text>
    <text x="360" y="218" font-size="10" fill="#6b7280">rwsem 写端</text>
  </g>

  <!-- ============ 3. khungtaskd 上下文 (center bottom) ============ -->
  <g transform="translate(80,575)" filter="url(#sh)">
    <rect width="380" height="270" rx="8" fill="#fff" stroke="#dc2626" stroke-width="2"/>
    <rect width="380" height="32" rx="8" fill="url(#hdrKhung)"/>
    <rect y="24" width="380" height="8" fill="#dc2626"/>
    <text x="190" y="22" text-anchor="middle" fill="#fff" font-size="14" font-weight="bold">khungtaskd 线程上下文</text>
    <text x="15" y="50" font-size="10" fill="#dc2626" font-weight="bold">kernel/hung_task.c — 全局变量</text>
    <line x1="10" y1="56" x2="370" y2="56" stroke="#fca5a5" stroke-width="0.8"/>

    <text x="15" y="74" font-size="11" fill="#dc2626" font-weight="bold" font-family="monospace">watchdog_task</text>
    <text x="365" y="74" text-anchor="end" font-size="10" fill="#6b7280">task_struct * — 线程指针</text>
    <text x="15" y="92" font-size="11" fill="#374151" font-family="monospace">hung_last_checked</text>
    <text x="365" y="92" text-anchor="end" font-size="10" fill="#6b7280">unsigned long (jiffies)</text>
    <line x1="10" y1="98" x2="370" y2="98" stroke="#e2e8f0" stroke-width="0.5"/>

    <text x="15" y="116" font-size="11" fill="#374151" font-family="monospace">reset_hung_task</text>
    <text x="365" y="116" text-anchor="end" font-size="10" fill="#6b7280">atomic_t — 重置标志</text>
    <text x="15" y="134" font-size="11" fill="#374151" font-family="monospace">hung_detector_suspended</text>
    <text x="365" y="134" text-anchor="end" font-size="10" fill="#6b7280">bool — PM 挂起标志</text>
    <text x="15" y="152" font-size="11" fill="#374151" font-family="monospace">did_panic</text>
    <text x="365" y="152" text-anchor="end" font-size="10" fill="#6b7280">int — panic 已发生</text>
    <line x1="10" y1="158" x2="370" y2="158" stroke="#e2e8f0" stroke-width="0.5"/>

    <!-- Flags -->
    <text x="15" y="176" font-size="11" fill="#374151" font-family="monospace">hung_task_show_lock</text>
    <text x="365" y="176" text-anchor="end" font-size="10" fill="#6b7280">bool — 显示锁信息</text>
    <text x="15" y="194" font-size="11" fill="#374151" font-family="monospace">hung_task_call_panic</text>
    <text x="365" y="194" text-anchor="end" font-size="10" fill="#6b7280">bool — 调用 panic</text>
    <text x="15" y="212" font-size="11" fill="#374151" font-family="monospace">hung_task_show_all_bt</text>
    <text x="365" y="212" text-anchor="end" font-size="10" fill="#6b7280">bool — 全 CPU 回溯</text>
    <line x1="10" y1="218" x2="370" y2="218" stroke="#e2e8f0" stroke-width="0.5"/>

    <text x="15" y="236" font-size="11" fill="#374151" font-family="monospace">HUNG_TASK_LOCK_BREAK</text>
    <text x="365" y="236" text-anchor="end" font-size="10" fill="#6b7280">HZ/10 — RCU 释放间隔</text>
    <text x="15" y="254" font-size="11" fill="#374151" font-family="monospace">panic_block</text>
    <text x="365" y="254" text-anchor="end" font-size="10" fill="#6b7280">notifier_block</text>
  </g>

  <!-- ============ 4. sysctl 变量 (right middle) ============ -->
  <g transform="translate(640,370)" filter="url(#sh)">
    <rect width="460" height="248" rx="8" fill="#fff" stroke="#7c3aed" stroke-width="2"/>
    <rect width="460" height="32" rx="8" fill="url(#hdrSysctl)"/>
    <rect y="24" width="460" height="8" fill="#7c3aed"/>
    <text x="230" y="22" text-anchor="middle" fill="#fff" font-size="14" font-weight="bold">sysctl 控制变量</text>
    <text x="15" y="50" font-size="10" fill="#7c3aed" font-weight="bold">kernel/hung_task.c — hung_task_sysctls[]</text>
    <line x1="10" y1="56" x2="450" y2="56" stroke="#ddd6fe" stroke-width="0.8"/>

    <text x="15" y="74" font-size="11" fill="#7c3aed" font-weight="bold" font-family="monospace">sysctl_hung_task_timeout_secs</text>
    <text x="445" y="74" text-anchor="end" font-size="10" fill="#6b7280">默认 120s</text>
    <text x="15" y="92" font-size="11" fill="#374151" font-family="monospace">sysctl_hung_task_check_interval_secs</text>
    <text x="445" y="92" text-anchor="end" font-size="10" fill="#6b7280">默认 0</text>
    <text x="15" y="110" font-size="11" fill="#374151" font-family="monospace">sysctl_hung_task_check_count</text>
    <text x="445" y="110" text-anchor="end" font-size="10" fill="#6b7280">PID_MAX_LIMIT</text>
    <line x1="10" y1="116" x2="450" y2="116" stroke="#e2e8f0" stroke-width="0.5"/>

    <text x="15" y="134" font-size="11" fill="#374151" font-family="monospace">sysctl_hung_task_warnings</text>
    <text x="445" y="134" text-anchor="end" font-size="10" fill="#6b7280">默认 10, -1=无限</text>
    <text x="15" y="152" font-size="11" fill="#374151" font-family="monospace">sysctl_hung_task_panic</text>
    <text x="445" y="152" text-anchor="end" font-size="10" fill="#6b7280">0 或 1</text>
    <text x="15" y="170" font-size="11" fill="#374151" font-family="monospace">sysctl_hung_task_detect_count</text>
    <text x="445" y="170" text-anchor="end" font-size="10" fill="#6b7280">只读，累计计数</text>
    <text x="15" y="188" font-size="11" fill="#374151" font-family="monospace">sysctl_hung_task_all_cpu_backtrace</text>
    <text x="445" y="188" text-anchor="end" font-size="10" fill="#6b7280">SMP only</text>
    <line x1="10" y1="194" x2="450" y2="194" stroke="#e2e8f0" stroke-width="0.5"/>

    <text x="15" y="212" font-size="10" fill="#7c3aed" font-weight="bold">接口路径：/proc/sys/kernel/hung_task_*</text>
    <text x="15" y="228" font-size="10" fill="#6b7280">写入 timeout 触发 wake_up_process(watchdog_task)</text>
    <text x="15" y="242" font-size="10" fill="#6b7280">hung_task_timeout_max = LONG_MAX / HZ</text>
  </g>

  <!-- ============ 5. Lock 对象 (right bottom) ============ -->
  <g transform="translate(640,690)" filter="url(#sh)">
    <rect width="460" height="155" rx="8" fill="#fff" stroke="#ea580c" stroke-width="2"/>
    <rect width="460" height="32" rx="8" fill="url(#hdrLock)"/>
    <rect y="24" width="460" height="8" fill="#ea580c"/>
    <text x="230" y="22" text-anchor="middle" fill="#fff" font-size="14" font-weight="bold">锁对象 (blocker 指向的目标)</text>
    <text x="15" y="50" font-size="10" fill="#ea580c" font-weight="bold">内核同步原语 — 被 hung task 等待的锁</text>
    <line x1="10" y1="56" x2="450" y2="56" stroke="#fdba74" stroke-width="0.8"/>

    <text x="15" y="74" font-size="11" fill="#374151" font-family="monospace">struct mutex</text>
    <text x="445" y="74" text-anchor="end" font-size="10" fill="#6b7280">→ mutex_get_owner() 获取持锁者</text>
    <text x="15" y="94" font-size="11" fill="#374151" font-family="monospace">struct semaphore</text>
    <text x="445" y="94" text-anchor="end" font-size="10" fill="#6b7280">→ sem_last_holder() 最后持有者</text>
    <text x="15" y="114" font-size="11" fill="#374151" font-family="monospace">struct rw_semaphore</text>
    <text x="445" y="114" text-anchor="end" font-size="10" fill="#6b7280">→ rwsem_owner() 读/写持有者</text>
    <line x1="10" y1="122" x2="450" y2="122" stroke="#e2e8f0" stroke-width="0.5"/>
    <text x="15" y="140" font-size="10" fill="#6b7280">debug_show_blocker() 解码 blocker 并遍历进程找到持锁者</text>
  </g>

  <!-- ======== Connection arrows ======== -->

  <!-- task_struct.last_switch_count → khungtaskd (read by) -->
  <path d="M270,405 L270,455 L270,575" fill="none" stroke="#dc2626" stroke-width="2.2" marker-end="url(#aRed)" stroke-dasharray="6,3"/>
  <rect x="170" y="470" width="200" height="36" rx="4" fill="white" fill-opacity="0.95"/>
  <text x="270" y="485" text-anchor="middle" font-size="10" fill="#dc2626" font-weight="bold">for_each_process_thread()</text>
  <text x="270" y="500" text-anchor="middle" font-size="9" fill="#6b7280">RCU 保护遍历所有进程</text>

  <!-- khungtaskd.watchdog_task → task_struct (points to self) -->
  <path d="M100,649 L60,649 L60,240 L80,240" fill="none" stroke="#2563eb" stroke-width="1.8" marker-end="url(#aBlu)"/>
  <rect x="8" y="435" width="90" height="18" rx="3" fill="white" fill-opacity="0.95"/>
  <text x="53" y="448" text-anchor="middle" font-size="9" fill="#2563eb">watchdog_task</text>

  <!-- task_struct.blocker → blocker 编码 -->
  <path d="M460,308 L550,308 L550,185 L640,185" fill="none" stroke="#059669" stroke-width="2" marker-end="url(#aGrn)"/>
  <rect x="498" y="236" width="94" height="18" rx="3" fill="white" fill-opacity="0.95"/>
  <text x="545" y="249" text-anchor="middle" font-size="10" fill="#059669">blocker 编码</text>

  <!-- blocker 编码 → Lock 对象 -->
  <path d="M870,300 L870,340 L870,690" fill="none" stroke="#ea580c" stroke-width="2" marker-end="url(#aOrg)"/>
  <rect x="810" y="348" width="120" height="18" rx="3" fill="white" fill-opacity="0.95"/>
  <text x="870" y="361" text-anchor="middle" font-size="10" fill="#ea580c">解码锁地址</text>

  <!-- khungtaskd → sysctl (reads) -->
  <path d="M460,700 L560,700 L560,494 L640,494" fill="none" stroke="#7c3aed" stroke-width="1.8" stroke-dasharray="4,2" marker-end="url(#aPrp)"/>
  <rect x="510" y="590" width="90" height="18" rx="3" fill="white" fill-opacity="0.95"/>
  <text x="555" y="603" text-anchor="middle" font-size="9" fill="#7c3aed">读取配置</text>

  <!-- task_struct.__state ← annotation -->
  <g transform="translate(470,95)">
    <rect width="148" height="72" rx="5" fill="#fef3c7" stroke="#f59e0b" stroke-width="1"/>
    <text x="10" y="16" font-size="9" fill="#92400e" font-weight="bold">检测状态过滤</text>
    <text x="10" y="30" font-size="9" fill="#374151">✓ TASK_UNINTERRUPTIBLE</text>
    <text x="10" y="43" font-size="9" fill="#9ca3af">✗ TASK_KILLABLE</text>
    <text x="10" y="56" font-size="9" fill="#9ca3af">✗ TASK_IDLE</text>
    <text x="10" y="69" font-size="9" fill="#9ca3af">✗ TASK_FROZEN</text>
  </g>
  <path d="M470,140 L460,140" fill="none" stroke="#f59e0b" stroke-width="1.2" marker-end="url(#aGry)"/>

  <!-- nvcsw+nivcsw → last_switch_count annotation -->
  <g transform="translate(470,185)">
    <rect width="148" height="50" rx="5" fill="#fef2f2" stroke="#fca5a5" stroke-width="1"/>
    <text x="10" y="16" font-size="9" fill="#991b1b" font-weight="bold">判定核心算法</text>
    <text x="10" y="32" font-size="9" fill="#374151" font-family="monospace">switch_count =</text>
    <text x="10" y="44" font-size="9" fill="#374151" font-family="monospace">  nvcsw + nivcsw</text>
  </g>
  <path d="M470,215 L460,215" fill="none" stroke="#fca5a5" stroke-width="1.2"/>

  <!-- ============ Legend ============ -->
  <g transform="translate(15,690)">
    <rect width="220" height="155" rx="6" fill="white" fill-opacity="0.92" stroke="#cbd5e1" stroke-width="1"/>
    <text x="12" y="18" font-size="11" font-weight="bold" fill="#475569">图例</text>
    <line x1="12" y1="25" x2="208" y2="25" stroke="#e2e8f0" stroke-width="0.8"/>

    <line x1="12" y1="42" x2="50" y2="42" stroke="#dc2626" stroke-width="2.2" stroke-dasharray="6,3"/>
    <text x="58" y="46" font-size="10" fill="#374151">RCU 遍历读取</text>

    <line x1="12" y1="62" x2="50" y2="62" stroke="#2563eb" stroke-width="1.8"/>
    <text x="58" y="66" font-size="10" fill="#374151">指针引用</text>

    <line x1="12" y1="82" x2="50" y2="82" stroke="#059669" stroke-width="2"/>
    <text x="58" y="86" font-size="10" fill="#374151">blocker 编码关系</text>

    <line x1="12" y1="102" x2="50" y2="102" stroke="#7c3aed" stroke-width="1.8" stroke-dasharray="4,2"/>
    <text x="58" y="106" font-size="10" fill="#374151">读取 sysctl 配置</text>

    <line x1="12" y1="122" x2="50" y2="122" stroke="#ea580c" stroke-width="2"/>
    <text x="58" y="126" font-size="10" fill="#374151">解码指向锁对象</text>

    <rect x="12" y="134" width="38" height="12" rx="2" fill="#fef3c7" stroke="#f59e0b" stroke-width="0.8"/>
    <text x="58" y="146" font-size="10" fill="#374151">注释说明</text>
  </g>

  <!-- Bottom annotation -->
  <text x="570" y="868" text-anchor="middle" font-size="10" fill="#94a3b8">Linux 6.18.1 · task_struct ↔ khungtaskd ↔ sysctl ↔ blocker 全局关系</text>
</svg>
