<svg xmlns="http://www.w3.org/2000/svg" viewBox="0 0 2140 1760" font-family="'Segoe UI','Noto Sans SC',Arial,sans-serif">
	<defs>
		<filter id="sh">
			<feDropShadow dx="2" dy="2" stdDeviation="2" flood-opacity="0.16"/>
		</filter>

		<linearGradient id="hdrUser" x1="0" y1="0" x2="0" y2="1">
			<stop offset="0%" stop-color="#7c3aed"/>
			<stop offset="100%" stop-color="#6d28d9"/>
		</linearGradient>
		<linearGradient id="hdrCore" x1="0" y1="0" x2="0" y2="1">
			<stop offset="0%" stop-color="#2563eb"/>
			<stop offset="100%" stop-color="#1d4ed8"/>
		</linearGradient>
		<linearGradient id="hdrStruct" x1="0" y1="0" x2="0" y2="1">
			<stop offset="0%" stop-color="#0ea5e9"/>
			<stop offset="100%" stop-color="#0284c7"/>
		</linearGradient>
		<linearGradient id="hdrArm" x1="0" y1="0" x2="0" y2="1">
			<stop offset="0%" stop-color="#16a34a"/>
			<stop offset="100%" stop-color="#15803d"/>
		</linearGradient>
		<linearGradient id="hdrHw" x1="0" y1="0" x2="0" y2="1">
			<stop offset="0%" stop-color="#dc2626"/>
			<stop offset="100%" stop-color="#b91c1c"/>
		</linearGradient>
		<linearGradient id="hdrState" x1="0" y1="0" x2="0" y2="1">
			<stop offset="0%" stop-color="#f59e0b"/>
			<stop offset="100%" stop-color="#d97706"/>
		</linearGradient>

		<marker id="a" markerWidth="10" markerHeight="7" refX="9" refY="3.5" orient="auto">
			<path d="M1,1 L9,3.5 L1,6" fill="none" stroke="#334155" stroke-width="1.5" stroke-linejoin="round"/>
		</marker>
		<marker id="aBlue" markerWidth="10" markerHeight="7" refX="9" refY="3.5" orient="auto">
			<path d="M1,1 L9,3.5 L1,6" fill="none" stroke="#1d4ed8" stroke-width="1.5" stroke-linejoin="round"/>
		</marker>
		<marker id="aGreen" markerWidth="10" markerHeight="7" refX="9" refY="3.5" orient="auto">
			<path d="M1,1 L9,3.5 L1,6" fill="none" stroke="#15803d" stroke-width="1.5" stroke-linejoin="round"/>
		</marker>
		<marker id="aRed" markerWidth="10" markerHeight="7" refX="9" refY="3.5" orient="auto">
			<path d="M1,1 L9,3.5 L1,6" fill="none" stroke="#b91c1c" stroke-width="1.5" stroke-linejoin="round"/>
		</marker>
		<marker id="dBlue" markerWidth="10" markerHeight="7" refX="1" refY="3.5" orient="auto">
			<path d="M0,3.5 L5,0 L10,3.5 L5,7 Z" fill="#fff" stroke="#1d4ed8" stroke-width="1.5" stroke-linejoin="round"/>
		</marker>
		<marker id="dGreen" markerWidth="10" markerHeight="7" refX="1" refY="3.5" orient="auto">
			<path d="M0,3.5 L5,0 L10,3.5 L5,7 Z" fill="#fff" stroke="#15803d" stroke-width="1.5" stroke-linejoin="round"/>
		</marker>
	</defs>

	<rect x="0" y="0" width="2140" height="1760" fill="#f8fafc"/>
	<text x="1070" y="42" text-anchor="middle" font-size="24" font-weight="700" fill="#0f172a">perf_event 从创建到上 PMU 的生命周期图</text>
	<text x="1070" y="66" text-anchor="middle" font-size="12" fill="#64748b">主线：perf_event_open() → perf_event 分配 → armpmu_event_init() → validate_group() → armpmu_add() → armv8pmu_enable_event()</text>

	<g transform="translate(42,92)">
		<rect width="520" height="100" rx="10" fill="#ffffff" fill-opacity="0.94" stroke="#cbd5e1" stroke-width="1.2" filter="url(#sh)"/>
		<text x="16" y="22" font-size="12" font-weight="700" fill="#0f172a">图例</text>
		<path d="M18,44 H112" fill="none" stroke="#334155" stroke-width="1.8" marker-end="url(#a)"/>
		<text x="126" y="48" font-size="11" fill="#334155">主流程推进</text>
		<path d="M18,70 H112" fill="none" stroke="#1d4ed8" stroke-width="2.4" marker-start="url(#dBlue)" marker-end="url(#aBlue)"/>
		<text x="126" y="74" font-size="11" fill="#334155">结构体嵌入 / 所有权</text>
		<path d="M18,96 H112" fill="none" stroke="#15803d" stroke-width="2.2" stroke-dasharray="6,3" marker-end="url(#aGreen)"/>
		<text x="126" y="100" font-size="11" fill="#334155">运行时引用 / 装载到硬件</text>
	</g>

	<g transform="translate(88,250)">
		<rect width="1964" height="118" rx="12" fill="#ffffff" stroke="#dbeafe" stroke-width="1.5" filter="url(#sh)"/>
		<text x="24" y="28" font-size="13" font-weight="700" fill="#1e40af">阶段总览</text>
		<rect x="22" y="46" width="280" height="44" rx="8" fill="#f5f3ff" stroke="#7c3aed" stroke-width="1.2"/>
		<text x="162" y="64" text-anchor="middle" font-size="11" font-weight="700" fill="#5b21b6">1. 用户态描述事件</text>
		<text x="162" y="80" text-anchor="middle" font-size="10" fill="#6d28d9">perf_event_attr 准备完成</text>
		<rect x="338" y="46" width="280" height="44" rx="8" fill="#eff6ff" stroke="#2563eb" stroke-width="1.2"/>
		<text x="478" y="64" text-anchor="middle" font-size="11" font-weight="700" fill="#1d4ed8">2. perf core 分配 perf_event</text>
		<text x="478" y="80" text-anchor="middle" font-size="10" fill="#2563eb">建立软件对象和 context</text>
		<rect x="654" y="46" width="280" height="44" rx="8" fill="#ecfeff" stroke="#0284c7" stroke-width="1.2"/>
		<text x="794" y="64" text-anchor="middle" font-size="11" font-weight="700" fill="#0369a1">3. PMU event_init 阶段</text>
		<text x="794" y="80" text-anchor="middle" font-size="10" fill="#0284c7">映射事件号，填 hw 字段</text>
		<rect x="970" y="46" width="280" height="44" rx="8" fill="#f0fdf4" stroke="#16a34a" stroke-width="1.2"/>
		<text x="1110" y="64" text-anchor="middle" font-size="11" font-weight="700" fill="#166534">4. 组约束与 CPU 兼容性验证</text>
		<text x="1110" y="80" text-anchor="middle" font-size="10" fill="#16a34a">validate_group() 模拟分配</text>
		<rect x="1286" y="46" width="280" height="44" rx="8" fill="#fef2f2" stroke="#dc2626" stroke-width="1.2"/>
		<text x="1426" y="64" text-anchor="middle" font-size="11" font-weight="700" fill="#991b1b">5. add/start 阶段</text>
		<text x="1426" y="80" text-anchor="middle" font-size="10" fill="#dc2626">选择计数器并下沉到 pmu_hw_events</text>
		<rect x="1602" y="46" width="340" height="44" rx="8" fill="#fff7ed" stroke="#f59e0b" stroke-width="1.2"/>
		<text x="1772" y="64" text-anchor="middle" font-size="11" font-weight="700" fill="#b45309">6. 硬件启用完成</text>
		<text x="1772" y="80" text-anchor="middle" font-size="10" fill="#d97706">PMEVTYPER / PMINTENSET / PMCNTENSET</text>
	</g>

	<g transform="translate(80,430)">
		<rect width="280" height="250" rx="10" fill="#fff" stroke="#7c3aed" stroke-width="2" filter="url(#sh)"/>
		<rect width="280" height="30" rx="10" fill="url(#hdrUser)"/>
		<rect x="0" y="22" width="280" height="8" fill="url(#hdrUser)"/>
		<text x="140" y="20" text-anchor="middle" fill="#fff" font-size="14" font-weight="700">阶段 1</text>
		<text x="20" y="54" font-size="11" font-weight="700" fill="#5b21b6">用户调用 perf_event_open()</text>
		<text x="20" y="78" font-size="10" fill="#6d28d9">填写 perf_event_attr:</text>
		<text x="20" y="98" font-size="10" fill="#6d28d9">type / config / sample_period</text>
		<text x="20" y="118" font-size="10" fill="#6d28d9">pinned / exclude_user / exclude_kernel</text>
		<text x="20" y="146" font-size="10" fill="#6d28d9">此时还没有硬件计数器分配</text>
		<text x="20" y="164" font-size="10" fill="#6d28d9">也没有写入任何 PMU 寄存器</text>
		<text x="20" y="196" font-size="10" font-weight="700" fill="#5b21b6">输出：</text>
		<text x="20" y="214" font-size="10" fill="#6d28d9">一个用户态事件描述，请求进入 perf core</text>
	</g>

	<g transform="translate(418,430)">
		<rect width="304" height="250" rx="10" fill="#fff" stroke="#2563eb" stroke-width="2" filter="url(#sh)"/>
		<rect width="304" height="30" rx="10" fill="url(#hdrCore)"/>
		<rect x="0" y="22" width="304" height="8" fill="url(#hdrCore)"/>
		<text x="152" y="20" text-anchor="middle" fill="#fff" font-size="14" font-weight="700">阶段 2</text>
		<text x="20" y="54" font-size="11" font-weight="700" fill="#1d4ed8">perf core 分配软件对象</text>
		<text x="20" y="78" font-size="10" fill="#2563eb">sys_perf_event_open() → perf_event_alloc()</text>
		<text x="20" y="98" font-size="10" fill="#2563eb">生成 struct perf_event</text>
		<text x="20" y="118" font-size="10" fill="#2563eb">挂接 perf_event_context / perf_event_pmu_context</text>
		<text x="20" y="138" font-size="10" fill="#2563eb">event->attr 复制自用户态 attr</text>
		<text x="20" y="158" font-size="10" fill="#2563eb">event->pmu 指向目标 PMU</text>
		<text x="20" y="190" font-size="10" font-weight="700" fill="#1d4ed8">此时状态：</text>
		<text x="20" y="208" font-size="10" fill="#2563eb">存在软件对象，但 hw.idx 仍为未分配</text>
	</g>

	<g transform="translate(780,430)">
		<rect width="320" height="250" rx="10" fill="#fff" stroke="#0284c7" stroke-width="2" filter="url(#sh)"/>
		<rect width="320" height="30" rx="10" fill="url(#hdrStruct)"/>
		<rect x="0" y="22" width="320" height="8" fill="url(#hdrStruct)"/>
		<text x="160" y="20" text-anchor="middle" fill="#fff" font-size="14" font-weight="700">阶段 3</text>
		<text x="20" y="54" font-size="11" font-weight="700" fill="#0369a1">armpmu_event_init(event)</text>
		<text x="20" y="78" font-size="10" fill="#0284c7">检查 supported_cpus / BRBE 能力</text>
		<text x="20" y="98" font-size="10" fill="#0284c7">map_event(event) → 映射硬件事件号</text>
		<text x="20" y="118" font-size="10" fill="#0284c7">set_event_filter() → 组合 EL 过滤位</text>
		<text x="20" y="138" font-size="10" fill="#0284c7">hwc->config_base |= mapping</text>
		<text x="20" y="158" font-size="10" fill="#0284c7">hwc->idx = -1，等待 add 阶段真正分配</text>
		<text x="20" y="190" font-size="10" font-weight="700" fill="#0369a1">结果：</text>
		<text x="20" y="208" font-size="10" fill="#0284c7">perf_event 已经知道“将来要写什么事件类型”</text>
	</g>

	<g transform="translate(1158,430)">
		<rect width="304" height="250" rx="10" fill="#fff" stroke="#16a34a" stroke-width="2" filter="url(#sh)"/>
		<rect width="304" height="30" rx="10" fill="url(#hdrArm)"/>
		<rect x="0" y="22" width="304" height="8" fill="url(#hdrArm)"/>
		<text x="152" y="20" text-anchor="middle" fill="#fff" font-size="14" font-weight="700">阶段 4</text>
		<text x="20" y="54" font-size="11" font-weight="700" fill="#166534">validate_group(event)</text>
		<text x="20" y="78" font-size="10" fill="#15803d">模拟组内所有事件的计数器占用</text>
		<text x="20" y="98" font-size="10" fill="#15803d">检测 pinned/exclusive 约束</text>
		<text x="20" y="118" font-size="10" fill="#15803d">提前发现 PMCCNTR / PMICNTR / chain 冲突</text>
		<text x="20" y="138" font-size="10" fill="#15803d">如果失败，perf_event_open() 直接返回错误</text>
		<text x="20" y="190" font-size="10" font-weight="700" fill="#166534">意义：</text>
		<text x="20" y="208" font-size="10" fill="#15803d">避免事件真正上 PMU 后才发现资源不够</text>
	</g>

	<g transform="translate(1520,430)">
		<rect width="300" height="250" rx="10" fill="#fff" stroke="#dc2626" stroke-width="2" filter="url(#sh)"/>
		<rect width="300" height="30" rx="10" fill="url(#hdrHw)"/>
		<rect x="0" y="22" width="300" height="8" fill="url(#hdrHw)"/>
		<text x="150" y="20" text-anchor="middle" fill="#fff" font-size="14" font-weight="700">阶段 5</text>
		<text x="20" y="54" font-size="11" font-weight="700" fill="#991b1b">armpmu_add(event, flags)</text>
		<text x="20" y="78" font-size="10" fill="#dc2626">get_event_idx(hw_events, event)</text>
		<text x="20" y="98" font-size="10" fill="#dc2626">选择 PMCCNTR / PMICNTR / chain / 通用计数器</text>
		<text x="20" y="118" font-size="10" fill="#dc2626">event->hw.idx = idx</text>
		<text x="20" y="138" font-size="10" fill="#dc2626">hw_events->events[idx] = event</text>
		<text x="20" y="158" font-size="10" fill="#dc2626">置 used_mask，对硬件槽位建立一一映射</text>
		<text x="20" y="190" font-size="10" font-weight="700" fill="#991b1b">此时：</text>
		<text x="20" y="208" font-size="10" fill="#dc2626">事件已“上槽位”，但还可能尚未真正打开计数</text>
	</g>

	<g transform="translate(1878,430)">
		<rect width="180" height="250" rx="10" fill="#fff" stroke="#d97706" stroke-width="2" filter="url(#sh)"/>
		<rect width="180" height="30" rx="10" fill="url(#hdrState)"/>
		<rect x="0" y="22" width="180" height="8" fill="url(#hdrState)"/>
		<text x="90" y="20" text-anchor="middle" fill="#fff" font-size="14" font-weight="700">阶段 6</text>
		<text x="18" y="54" font-size="11" font-weight="700" fill="#92400e">PERF_EF_START</text>
		<text x="18" y="78" font-size="10" fill="#b45309">armpmu_start()</text>
		<text x="18" y="98" font-size="10" fill="#b45309">set_period()</text>
		<text x="18" y="118" font-size="10" fill="#b45309">enable_event()</text>
		<text x="18" y="138" font-size="10" fill="#b45309">开始真正计数</text>
	</g>

	<path d="M360,555 H418" fill="none" stroke="#334155" stroke-width="1.8" marker-end="url(#a)"/>
	<path d="M722,555 H780" fill="none" stroke="#334155" stroke-width="1.8" marker-end="url(#a)"/>
	<path d="M1100,555 H1158" fill="none" stroke="#334155" stroke-width="1.8" marker-end="url(#a)"/>
	<path d="M1462,555 H1520" fill="none" stroke="#334155" stroke-width="1.8" marker-end="url(#a)"/>
	<path d="M1820,555 H1878" fill="none" stroke="#334155" stroke-width="1.8" marker-end="url(#a)"/>

	<g transform="translate(116,760)">
		<rect width="300" height="228" rx="10" fill="#fff" stroke="#0284c7" stroke-width="2" filter="url(#sh)"/>
		<rect width="300" height="30" rx="10" fill="url(#hdrStruct)"/>
		<rect x="0" y="22" width="300" height="8" fill="url(#hdrStruct)"/>
		<text x="150" y="20" text-anchor="middle" fill="#fff" font-size="14" font-weight="700">struct perf_event</text>
		<text x="18" y="52" font-size="10" font-weight="700" fill="#0369a1">生命周期中的中心对象</text>
		<text x="18" y="76" font-size="10" fill="#0284c7">attr 复制自用户态</text>
		<text x="18" y="96" font-size="10" fill="#0284c7">pmu 指向 arm_pmu.pmu</text>
		<text x="18" y="116" font-size="10" fill="#0284c7">ctx / pmu_ctx 描述调度位置</text>
		<text x="18" y="136" font-size="10" fill="#0284c7">hw 保存未来要写入硬件的状态</text>
		<text x="18" y="156" font-size="10" fill="#0284c7">rb 表示采样写回的 ring buffer</text>
		<text x="18" y="184" font-size="10" font-weight="700" fill="#0369a1">创建后存在，删除前一直存活</text>
	</g>

	<g transform="translate(528,760)">
		<rect width="268" height="228" rx="10" fill="#fff" stroke="#2563eb" stroke-width="2" filter="url(#sh)"/>
		<rect width="268" height="30" rx="10" fill="url(#hdrCore)"/>
		<rect x="0" y="22" width="268" height="8" fill="url(#hdrCore)"/>
		<text x="134" y="20" text-anchor="middle" fill="#fff" font-size="14" font-weight="700">struct perf_event_attr</text>
		<text x="18" y="52" font-size="10" font-weight="700" fill="#1d4ed8">只负责“描述需求”</text>
		<text x="18" y="76" font-size="10" fill="#2563eb">type / config 决定 map_event 路径</text>
		<text x="18" y="96" font-size="10" fill="#2563eb">sample_period 决定采样窗口</text>
		<text x="18" y="116" font-size="10" fill="#2563eb">exclude_* 进入 set_event_filter</text>
		<text x="18" y="136" font-size="10" fill="#2563eb">pinned / exclusive 影响 validate_group</text>
	</g>

	<g transform="translate(908,760)">
		<rect width="308" height="228" rx="10" fill="#fff" stroke="#16a34a" stroke-width="2" filter="url(#sh)"/>
		<rect width="308" height="30" rx="10" fill="url(#hdrArm)"/>
		<rect x="0" y="22" width="308" height="8" fill="url(#hdrArm)"/>
		<text x="154" y="20" text-anchor="middle" fill="#fff" font-size="14" font-weight="700">struct arm_pmu / struct pmu</text>
		<text x="18" y="52" font-size="10" font-weight="700" fill="#166534">把 perf core 请求翻译成硬件操作</text>
		<text x="18" y="76" font-size="10" fill="#15803d">event_init / add / del / start / stop</text>
		<text x="18" y="96" font-size="10" fill="#15803d">map_event / get_event_idx / enable / disable</text>
		<text x="18" y="116" font-size="10" fill="#15803d">read_counter / write_counter</text>
		<text x="18" y="136" font-size="10" fill="#15803d">hw_events 指向每 CPU 的硬件槽位表</text>
	</g>

	<g transform="translate(1328,760)">
		<rect width="300" height="228" rx="10" fill="#fff" stroke="#dc2626" stroke-width="2" filter="url(#sh)"/>
		<rect width="300" height="30" rx="10" fill="url(#hdrHw)"/>
		<rect x="0" y="22" width="300" height="8" fill="url(#hdrHw)"/>
		<text x="150" y="20" text-anchor="middle" fill="#fff" font-size="14" font-weight="700">struct pmu_hw_events</text>
		<text x="18" y="52" font-size="10" font-weight="700" fill="#991b1b">真正表示“这个 CPU 上哪些槽位已占用”</text>
		<text x="18" y="76" font-size="10" fill="#dc2626">events[idx] = perf_event</text>
		<text x="18" y="96" font-size="10" fill="#dc2626">used_mask 表示硬件计数器使用情况</text>
		<text x="18" y="116" font-size="10" fill="#dc2626">percpu_pmu 回指 arm_pmu</text>
		<text x="18" y="136" font-size="10" fill="#dc2626">add 阶段之后才真正持有事件</text>
	</g>

	<g transform="translate(1740,760)">
		<rect width="300" height="228" rx="10" fill="#fff" stroke="#d97706" stroke-width="2" filter="url(#sh)"/>
		<rect width="300" height="30" rx="10" fill="url(#hdrState)"/>
		<rect x="0" y="22" width="300" height="8" fill="url(#hdrState)"/>
		<text x="150" y="20" text-anchor="middle" fill="#fff" font-size="14" font-weight="700">寄存器状态</text>
		<text x="18" y="52" font-size="10" font-weight="700" fill="#92400e">只有 start/enable 后才改变</text>
		<text x="18" y="76" font-size="10" fill="#b45309">PMEVTYPERn 写入 config_base</text>
		<text x="18" y="96" font-size="10" fill="#b45309">PMINTENSET 打开 overflow IRQ</text>
		<text x="18" y="116" font-size="10" fill="#b45309">PMCNTENSET 打开 counter 计数</text>
		<text x="18" y="136" font-size="10" fill="#b45309">write_counter 写入负载初值</text>
	</g>

	<path d="M418,862 H416" fill="none" stroke="#1d4ed8" stroke-width="2.4" marker-start="url(#dBlue)" marker-end="url(#aBlue)"/>
	<path d="M416,862 H528" fill="none" stroke="#1d4ed8" stroke-width="2.4" marker-start="url(#dBlue)" marker-end="url(#aBlue)"/>
	<rect x="430" y="849" width="84" height="22" rx="4" fill="white" fill-opacity="0.95"/>
	<text x="472" y="864" text-anchor="middle" font-size="10" font-weight="700" fill="#1d4ed8">attr copy</text>

	<path d="M416,912 H908" fill="none" stroke="#15803d" stroke-width="2.2" stroke-dasharray="6,3" marker-end="url(#aGreen)"/>
	<rect x="628" y="899" width="78" height="22" rx="4" fill="white" fill-opacity="0.95"/>
	<text x="667" y="914" text-anchor="middle" font-size="10" font-weight="700" fill="#15803d">pmu</text>

	<path d="M1216,912 H1328" fill="none" stroke="#15803d" stroke-width="2.2" stroke-dasharray="6,3" marker-end="url(#aGreen)"/>
	<rect x="1234" y="899" width="72" height="22" rx="4" fill="white" fill-opacity="0.95"/>
	<text x="1270" y="914" text-anchor="middle" font-size="10" font-weight="700" fill="#15803d">hw_events</text>

	<path d="M1628,912 H1740" fill="none" stroke="#b91c1c" stroke-width="2.2" marker-end="url(#aRed)"/>
	<rect x="1652" y="899" width="64" height="22" rx="4" fill="white" fill-opacity="0.95"/>
	<text x="1684" y="914" text-anchor="middle" font-size="10" font-weight="700" fill="#b91c1c">enable</text>

	<g transform="translate(92,1080)">
		<rect width="1960" height="520" rx="12" fill="#ffffff" stroke="#e2e8f0" stroke-width="1.5" filter="url(#sh)"/>
		<text x="24" y="28" font-size="13" font-weight="700" fill="#0f172a">关键状态变化</text>

		<rect x="22" y="54" width="302" height="132" rx="8" fill="#eff6ff" stroke="#2563eb" stroke-width="1.3"/>
		<text x="38" y="78" font-size="11" font-weight="700" fill="#1d4ed8">A. 创建后</text>
		<text x="38" y="100" font-size="10" fill="#2563eb">event 已存在</text>
		<text x="38" y="118" font-size="10" fill="#2563eb">event->attr 已就位</text>
		<text x="38" y="136" font-size="10" fill="#2563eb">event->hw.idx = -1</text>
		<text x="38" y="154" font-size="10" fill="#2563eb">还没有占任何 PMU counter</text>

		<rect x="346" y="54" width="302" height="132" rx="8" fill="#ecfeff" stroke="#0284c7" stroke-width="1.3"/>
		<text x="362" y="78" font-size="11" font-weight="700" fill="#0369a1">B. event_init 后</text>
		<text x="362" y="100" font-size="10" fill="#0284c7">hw.config_base 已含事件号和过滤位</text>
		<text x="362" y="118" font-size="10" fill="#0284c7">sample_period 初值已设置</text>
		<text x="362" y="136" font-size="10" fill="#0284c7">validate_group 已验证资源可行性</text>
		<text x="362" y="154" font-size="10" fill="#0284c7">但尚未下沉到具体槽位</text>

		<rect x="670" y="54" width="302" height="132" rx="8" fill="#fef2f2" stroke="#dc2626" stroke-width="1.3"/>
		<text x="686" y="78" font-size="11" font-weight="700" fill="#991b1b">C. add 后</text>
		<text x="686" y="100" font-size="10" fill="#dc2626">event->hw.idx = 实际 counter 编号</text>
		<text x="686" y="118" font-size="10" fill="#dc2626">hw_events->events[idx] = event</text>
		<text x="686" y="136" font-size="10" fill="#dc2626">used_mask 对应 bit 置位</text>
		<text x="686" y="154" font-size="10" fill="#dc2626">已经“上 PMU 槽位”</text>

		<rect x="994" y="54" width="302" height="132" rx="8" fill="#fff7ed" stroke="#f59e0b" stroke-width="1.3"/>
		<text x="1010" y="78" font-size="11" font-weight="700" fill="#b45309">D. start/enable 后</text>
		<text x="1010" y="100" font-size="10" fill="#d97706">write_counter() 写入负载初值</text>
		<text x="1010" y="118" font-size="10" fill="#d97706">write_event_type() 编程 PMEVTYPER</text>
		<text x="1010" y="136" font-size="10" fill="#d97706">enable IRQ + enable counter</text>
		<text x="1010" y="154" font-size="10" fill="#d97706">硬件真正开始计数</text>

		<rect x="1318" y="54" width="620" height="132" rx="8" fill="#f8fafc" stroke="#94a3b8" stroke-width="1.3"/>
		<text x="1334" y="78" font-size="11" font-weight="700" fill="#334155">为什么要分这几段</text>
		<text x="1334" y="100" font-size="10" fill="#475569">Linux perf 刻意把“对象创建”“配置验证”“槽位分配”“寄存器编程”拆开，目的是让调度器可以延迟把事件真正装到 PMU，支持组验证、轮转复用、CPU 上下文切换和 pinned 语义。</text>

		<rect x="22" y="220" width="1916" height="256" rx="10" fill="#ffffff" stroke="#cbd5e1" stroke-width="1.2"/>
		<text x="40" y="248" font-size="12" font-weight="700" fill="#0f172a">最容易混淆的三条边界</text>
		<text x="40" y="278" font-size="10" fill="#334155">1. `perf_event` 被创建，不等于已经占用硬件计数器；只有 `armpmu_add()` 之后，`hw.idx` 和 `pmu_hw_events->events[idx]` 才落定。</text>
		<text x="40" y="306" font-size="10" fill="#334155">2. `event_init()` 决定“这个事件应该如何编程”，但不决定“现在装到哪一个 counter”；计数器分配属于 `get_event_idx()`。</text>
		<text x="40" y="334" font-size="10" fill="#334155">3. `add()` 完成槽位绑定，不等于硬件已经开始数；真正打开硬件要等 `armpmu_start()` / `armv8pmu_enable_event()`。</text>

		<rect x="22" y="492" width="1916" height="18" rx="6" fill="#e2e8f0"/>
	</g>

	<text x="1070" y="1702" text-anchor="middle" font-size="12" fill="#475569">一句话总结：`perf_event` 先作为软件对象存在，再被 ARM PMU 驱动验证并映射，随后分配到 `pmu_hw_events` 的具体槽位，最后才通过寄存器编程真正“上 PMU”。</text>
</svg>