<svg xmlns="http://www.w3.org/2000/svg" viewBox="0 0 1300 900" font-family="'Segoe UI','Noto Sans SC',Arial,sans-serif">
  <defs>
    <filter id="sh"><feDropShadow dx="2" dy="2" stdDeviation="2" flood-opacity="0.15"/></filter>
    <linearGradient id="hdrCache" x1="0" y1="0" x2="1" y2="0"><stop offset="0%" stop-color="#0891b2"/><stop offset="100%" stop-color="#22d3ee"/></linearGradient>
    <linearGradient id="hdrSlab" x1="0" y1="0" x2="1" y2="0"><stop offset="0%" stop-color="#6366f1"/><stop offset="100%" stop-color="#818cf8"/></linearGradient>
    <linearGradient id="hdrTrack" x1="0" y1="0" x2="1" y2="0"><stop offset="0%" stop-color="#16a34a"/><stop offset="100%" stop-color="#4ade80"/></linearGradient>
    <linearGradient id="hdrPoison" x1="0" y1="0" x2="1" y2="0"><stop offset="0%" stop-color="#dc2626"/><stop offset="100%" stop-color="#f87171"/></linearGradient>
    <linearGradient id="hdrObj" x1="0" y1="0" x2="1" y2="0"><stop offset="0%" stop-color="#ea580c"/><stop offset="100%" stop-color="#fb923c"/></linearGradient>
    <linearGradient id="hdrKasan" x1="0" y1="0" x2="1" y2="0"><stop offset="0%" stop-color="#9333ea"/><stop offset="100%" stop-color="#c084fc"/></linearGradient>
    <!-- Markers -->
    <marker id="aB" markerWidth="10" markerHeight="7" refX="9" refY="3.5" orient="auto"><path d="M1,1 L9,3.5 L1,6" fill="none" stroke="#6366f1" stroke-width="1.5" stroke-linejoin="round"/></marker>
    <marker id="aT" markerWidth="10" markerHeight="7" refX="9" refY="3.5" orient="auto"><path d="M1,1 L9,3.5 L1,6" fill="none" stroke="#0891b2" stroke-width="1.5" stroke-linejoin="round"/></marker>
    <marker id="aG" markerWidth="10" markerHeight="7" refX="9" refY="3.5" orient="auto"><path d="M1,1 L9,3.5 L1,6" fill="none" stroke="#16a34a" stroke-width="1.5" stroke-linejoin="round"/></marker>
    <marker id="aR" markerWidth="10" markerHeight="7" refX="9" refY="3.5" orient="auto"><path d="M1,1 L9,3.5 L1,6" fill="none" stroke="#dc2626" stroke-width="1.5" stroke-linejoin="round"/></marker>
    <marker id="aO" markerWidth="10" markerHeight="7" refX="9" refY="3.5" orient="auto"><path d="M1,1 L9,3.5 L1,6" fill="none" stroke="#ea580c" stroke-width="1.5" stroke-linejoin="round"/></marker>
    <marker id="aP" markerWidth="10" markerHeight="7" refX="9" refY="3.5" orient="auto"><path d="M1,1 L9,3.5 L1,6" fill="none" stroke="#9333ea" stroke-width="1.5" stroke-linejoin="round"/></marker>
    <marker id="aD" markerWidth="10" markerHeight="7" refX="9" refY="3.5" orient="auto"><path d="M1,1 L9,3.5 L1,6" fill="none" stroke="#475569" stroke-width="1.5" stroke-linejoin="round"/></marker>
  </defs>

  <!-- Title -->
  <text x="650" y="28" text-anchor="middle" font-size="16" font-weight="bold" fill="#1e293b">SLUB Debug 关键数据结构关系图</text>
  <text x="650" y="48" text-anchor="middle" font-size="10" fill="#64748b">源码: mm/slub.c, mm/slab.h, include/linux/poison.h</text>

  <!-- ============ kmem_cache (Debug 相关字段) ============ -->
  <g transform="translate(30,70)">
    <rect width="360" height="370" rx="8" fill="#fff" stroke="#0891b2" stroke-width="2" filter="url(#sh)"/>
    <rect width="360" height="30" rx="8" fill="url(#hdrCache)"/>
    <rect x="0" y="22" width="360" height="8" fill="#0891b2"/>
    <text x="180" y="20" text-anchor="middle" font-size="14" font-weight="bold" fill="#fff">kmem_cache (Debug 字段)</text>
    <text x="15" y="48" font-size="9" font-weight="bold" fill="#0891b2">// slab 缓存描述符，mm/slab.h:238</text>
    <line x1="10" y1="56" x2="350" y2="56" stroke="#cffafe" stroke-width="0.8"/>
    <text x="15" y="74" font-size="11" font-family="monospace" fill="#334155">flags</text>
    <text x="200" y="74" font-size="9" fill="#94a3b8">slab_flags_t — SLAB_RED_ZONE 等</text>
    <text x="15" y="96" font-size="11" font-family="monospace" fill="#ea580c">size</text>
    <text x="200" y="96" font-size="9" fill="#94a3b8">unsigned int — 含元数据总大小</text>
    <text x="15" y="118" font-size="11" font-family="monospace" fill="#ea580c">object_size</text>
    <text x="200" y="118" font-size="9" fill="#94a3b8">unsigned int — 用户请求大小</text>
    <text x="15" y="140" font-size="11" font-family="monospace" fill="#334155">offset</text>
    <text x="200" y="140" font-size="9" fill="#94a3b8">unsigned int — freelist 指针偏移</text>
    <text x="15" y="162" font-size="11" font-family="monospace" fill="#ea580c">inuse</text>
    <text x="200" y="162" font-size="9" fill="#94a3b8">unsigned int — 元数据起始偏移</text>
    <text x="15" y="184" font-size="11" font-family="monospace" fill="#dc2626">red_left_pad</text>
    <text x="200" y="184" font-size="9" fill="#94a3b8">unsigned int — 左 Red Zone 大小</text>
    <line x1="10" y1="194" x2="350" y2="194" stroke="#cffafe" stroke-width="0.8"/>
    <text x="15" y="210" font-size="11" font-family="monospace" fill="#334155">random</text>
    <text x="200" y="210" font-size="9" fill="#94a3b8">unsigned long — freelist 异或密钥</text>
    <text x="15" y="230" font-size="9" fill="#94a3b8">(CONFIG_SLAB_FREELIST_HARDENED)</text>
    <line x1="10" y1="240" x2="350" y2="240" stroke="#cffafe" stroke-width="0.8"/>
    <text x="15" y="258" font-size="11" font-family="monospace" fill="#9333ea">kasan_info</text>
    <text x="200" y="258" font-size="9" fill="#94a3b8">kasan_cache (CONFIG_KASAN_GENERIC)</text>
    <line x1="10" y1="268" x2="350" y2="268" stroke="#cffafe" stroke-width="0.8"/>
    <text x="15" y="286" font-size="11" font-family="monospace" fill="#334155">useroffset</text>
    <text x="200" y="286" font-size="9" fill="#94a3b8">unsigned int — usercopy 偏移</text>
    <text x="15" y="306" font-size="11" font-family="monospace" fill="#334155">usersize</text>
    <text x="200" y="306" font-size="9" fill="#94a3b8">unsigned int — usercopy 大小</text>
    <text x="15" y="322" font-size="9" fill="#94a3b8">(CONFIG_HARDENED_USERCOPY)</text>
    <line x1="10" y1="332" x2="350" y2="332" stroke="#cffafe" stroke-width="0.8"/>
    <text x="15" y="350" font-size="11" font-family="monospace" fill="#334155">name</text>
    <text x="200" y="350" font-size="9" fill="#94a3b8">const char* — 如 "kmalloc-64"</text>
  </g>

  <!-- ============ struct slab ============ -->
  <g transform="translate(470,70)">
    <rect width="340" height="280" rx="8" fill="#fff" stroke="#6366f1" stroke-width="2" filter="url(#sh)"/>
    <rect width="340" height="30" rx="8" fill="url(#hdrSlab)"/>
    <rect x="0" y="22" width="340" height="8" fill="#6366f1"/>
    <text x="170" y="20" text-anchor="middle" font-size="14" font-weight="bold" fill="#fff">struct slab</text>
    <text x="15" y="48" font-size="9" font-weight="bold" fill="#6366f1">// slab 页描述符，mm/slab.h:52</text>
    <line x1="10" y1="56" x2="330" y2="56" stroke="#e0e7ff" stroke-width="0.8"/>
    <text x="15" y="74" font-size="11" font-family="monospace" fill="#334155">flags</text>
    <text x="200" y="74" font-size="9" fill="#94a3b8">memdesc_flags_t — PG_slab 等</text>
    <text x="15" y="96" font-size="11" font-family="monospace" fill="#0891b2">slab_cache</text>
    <text x="200" y="96" font-size="9" fill="#94a3b8">kmem_cache* — 所属缓存</text>
    <text x="15" y="118" font-size="11" font-family="monospace" fill="#334155">slab_list</text>
    <text x="200" y="118" font-size="9" fill="#94a3b8">list_head — partial/full 链</text>
    <line x1="10" y1="128" x2="330" y2="128" stroke="#e0e7ff" stroke-width="0.8"/>
    <text x="15" y="146" font-size="11" font-family="monospace" fill="#ea580c">freelist</text>
    <text x="200" y="146" font-size="9" fill="#94a3b8">void* — 首个空闲对象</text>
    <text x="15" y="168" font-size="11" font-family="monospace" fill="#334155">inuse</text>
    <text x="200" y="168" font-size="9" fill="#94a3b8">unsigned:16 — 已用对象数</text>
    <text x="15" y="190" font-size="11" font-family="monospace" fill="#334155">objects</text>
    <text x="200" y="190" font-size="9" fill="#94a3b8">unsigned:15 — 总对象数</text>
    <text x="15" y="212" font-size="11" font-family="monospace" fill="#dc2626">frozen</text>
    <text x="200" y="212" font-size="9" fill="#94a3b8">unsigned:1 — debug 下=corrupted</text>
    <line x1="10" y1="222" x2="330" y2="222" stroke="#e0e7ff" stroke-width="0.8"/>
    <text x="15" y="240" font-size="11" font-family="monospace" fill="#334155">__page_type</text>
    <text x="200" y="240" font-size="9" fill="#94a3b8">unsigned int</text>
    <text x="15" y="260" font-size="11" font-family="monospace" fill="#334155">__page_refcount</text>
    <text x="200" y="260" font-size="9" fill="#94a3b8">atomic_t</text>
  </g>

  <!-- ============ struct track ============ -->
  <g transform="translate(890,70)">
    <rect width="290" height="210" rx="8" fill="#fff" stroke="#16a34a" stroke-width="2" filter="url(#sh)"/>
    <rect width="290" height="30" rx="8" fill="url(#hdrTrack)"/>
    <rect x="0" y="22" width="290" height="8" fill="#16a34a"/>
    <text x="145" y="20" text-anchor="middle" font-size="14" font-weight="bold" fill="#fff">struct track</text>
    <text x="15" y="48" font-size="9" font-weight="bold" fill="#16a34a">// SLUB Debug 追踪信息，mm/slub.c:339</text>
    <line x1="10" y1="56" x2="280" y2="56" stroke="#bbf7d0" stroke-width="0.8"/>
    <text x="15" y="76" font-size="11" font-family="monospace" fill="#334155">addr</text>
    <text x="170" y="76" font-size="9" fill="#94a3b8">unsigned long — 调用地址</text>
    <text x="15" y="98" font-size="11" font-family="monospace" fill="#334155">handle</text>
    <text x="170" y="98" font-size="9" fill="#94a3b8">depot_stack_handle_t</text>
    <text x="170" y="114" font-size="9" fill="#94a3b8">(CONFIG_STACKDEPOT)</text>
    <text x="15" y="134" font-size="11" font-family="monospace" fill="#334155">cpu</text>
    <text x="170" y="134" font-size="9" fill="#94a3b8">int — 操作 CPU</text>
    <text x="15" y="156" font-size="11" font-family="monospace" fill="#334155">pid</text>
    <text x="170" y="156" font-size="9" fill="#94a3b8">int — 操作进程 PID</text>
    <text x="15" y="178" font-size="11" font-family="monospace" fill="#334155">when</text>
    <text x="170" y="178" font-size="9" fill="#94a3b8">unsigned long — jiffies 时间</text>
    <text x="15" y="196" font-size="9" fill="#64748b">存储 2 份: TRACK_ALLOC + TRACK_FREE</text>
  </g>

  <!-- ============ Object Layout (Debug 模式) ============ -->
  <g transform="translate(30,500)">
    <rect width="1240" height="370" rx="8" fill="#fffbeb" stroke="#ea580c" stroke-width="1.5" filter="url(#sh)"/>
    <text x="620" y="24" text-anchor="middle" font-size="13" font-weight="bold" fill="#c2410c">SLUB Debug 模式对象内存布局 (SLAB_RED_ZONE | SLAB_POISON | SLAB_STORE_USER)</text>
    <line x1="10" y1="34" x2="1230" y2="34" stroke="#fed7aa" stroke-width="0.8"/>

    <!-- Layout diagram -->
    <text x="15" y="58" font-size="10" font-weight="bold" fill="#475569">对象完整布局（低地址 → 高地址）:</text>

    <!-- Red Left Pad -->
    <rect x="15" y="72" width="100" height="60" rx="4" fill="#fecaca" stroke="#dc2626" stroke-width="1.5"/>
    <text x="65" y="94" text-anchor="middle" font-size="9" font-weight="bold" fill="#991b1b">Left Red Zone</text>
    <text x="65" y="110" text-anchor="middle" font-size="8" fill="#991b1b">red_left_pad</text>
    <text x="65" y="124" text-anchor="middle" font-size="8" font-family="monospace" fill="#991b1b">0xBB (inactive)</text>

    <!-- Object data -->
    <rect x="125" y="72" width="220" height="60" rx="4" fill="#dbeafe" stroke="#2563eb" stroke-width="1.5"/>
    <text x="235" y="94" text-anchor="middle" font-size="10" font-weight="bold" fill="#1e40af">Object Data (object_size)</text>
    <text x="235" y="112" text-anchor="middle" font-size="8" fill="#1e40af">已分配: 用户数据</text>
    <text x="235" y="124" text-anchor="middle" font-size="8" font-family="monospace" fill="#1e40af">已释放: 0x6B..6B A5 (POISON)</text>

    <!-- Right Red Zone (to inuse) -->
    <rect x="355" y="72" width="100" height="60" rx="4" fill="#fecaca" stroke="#dc2626" stroke-width="1.5"/>
    <text x="405" y="94" text-anchor="middle" font-size="9" font-weight="bold" fill="#991b1b">Right Red Zone</text>
    <text x="405" y="110" text-anchor="middle" font-size="8" fill="#991b1b">inuse - object_size</text>
    <text x="405" y="124" text-anchor="middle" font-size="8" font-family="monospace" fill="#991b1b">0xBB (inactive)</text>

    <!-- FP (freelist pointer) -->
    <rect x="465" y="72" width="80" height="60" rx="4" fill="#e0e7ff" stroke="#6366f1" stroke-width="1.5"/>
    <text x="505" y="94" text-anchor="middle" font-size="9" font-weight="bold" fill="#4338ca">FP</text>
    <text x="505" y="110" text-anchor="middle" font-size="8" fill="#4338ca">Freelist Ptr</text>
    <text x="505" y="124" text-anchor="middle" font-size="8" fill="#4338ca">(XOR 加固)</text>

    <!-- Track Alloc -->
    <rect x="555" y="72" width="120" height="60" rx="4" fill="#dcfce7" stroke="#16a34a" stroke-width="1.5"/>
    <text x="615" y="90" text-anchor="middle" font-size="9" font-weight="bold" fill="#166534">Track ALLOC</text>
    <text x="615" y="106" text-anchor="middle" font-size="8" fill="#166534">addr, handle,</text>
    <text x="615" y="120" text-anchor="middle" font-size="8" fill="#166534">cpu, pid, when</text>

    <!-- Track Free -->
    <rect x="685" y="72" width="120" height="60" rx="4" fill="#fef9c3" stroke="#ca8a04" stroke-width="1.5"/>
    <text x="745" y="90" text-anchor="middle" font-size="9" font-weight="bold" fill="#854d0e">Track FREE</text>
    <text x="745" y="106" text-anchor="middle" font-size="8" fill="#854d0e">addr, handle,</text>
    <text x="745" y="120" text-anchor="middle" font-size="8" fill="#854d0e">cpu, pid, when</text>

    <!-- Orig size -->
    <rect x="815" y="72" width="80" height="60" rx="4" fill="#f3e8ff" stroke="#9333ea" stroke-width="1.5"/>
    <text x="855" y="94" text-anchor="middle" font-size="9" font-weight="bold" fill="#7e22ce">orig_size</text>
    <text x="855" y="110" text-anchor="middle" font-size="8" fill="#7e22ce">unsigned int</text>
    <text x="855" y="124" text-anchor="middle" font-size="8" fill="#7e22ce">(实际请求)</text>

    <!-- Padding (poison inuse) -->
    <rect x="905" y="72" width="100" height="60" rx="4" fill="#fff1f2" stroke="#f43f5e" stroke-width="1.5"/>
    <text x="955" y="94" text-anchor="middle" font-size="9" font-weight="bold" fill="#be123c">Padding</text>
    <text x="955" y="110" text-anchor="middle" font-size="8" fill="#be123c">到 size 对齐</text>
    <text x="955" y="124" text-anchor="middle" font-size="8" font-family="monospace" fill="#be123c">0x5A (POISON_INUSE)</text>

    <!-- Offset labels -->
    <text x="15" y="158" font-size="9" fill="#475569">偏移: 0</text>
    <text x="125" y="158" font-size="9" fill="#475569">red_left_pad</text>
    <text x="355" y="158" font-size="9" fill="#475569">+object_size</text>
    <text x="465" y="158" font-size="9" fill="#475569">+inuse (offset)</text>
    <text x="555" y="158" font-size="9" fill="#475569">get_info_end()</text>
    <text x="815" y="158" font-size="9" fill="#475569">+2×track</text>
    <text x="905" y="158" font-size="9" fill="#475569">→ size</text>

    <!-- Poison patterns table -->
    <text x="15" y="190" font-size="11" font-weight="bold" fill="#dc2626">Poison 模式填充字节:</text>

    <rect x="15" y="200" width="600" height="24" rx="0" fill="#fef2f2" stroke="#fecaca" stroke-width="0.5"/>
    <text x="25" y="216" font-size="10" font-family="monospace" font-weight="bold" fill="#991b1b">SLUB_RED_INACTIVE  0xBB</text>
    <text x="300" y="216" font-size="9" fill="#475569">Red Zone 哨兵 — 对象未活跃时</text>

    <rect x="15" y="224" width="600" height="24" rx="0" fill="#fff" stroke="#fecaca" stroke-width="0.5"/>
    <text x="25" y="240" font-size="10" font-family="monospace" font-weight="bold" fill="#991b1b">SLUB_RED_ACTIVE    0xCC</text>
    <text x="300" y="240" font-size="9" fill="#475569">Red Zone 哨兵 — 对象已分配时</text>

    <rect x="15" y="248" width="600" height="24" rx="0" fill="#fef2f2" stroke="#fecaca" stroke-width="0.5"/>
    <text x="25" y="264" font-size="10" font-family="monospace" font-weight="bold" fill="#991b1b">POISON_FREE        0x6B</text>
    <text x="300" y="264" font-size="9" fill="#475569">已释放对象数据区 — 检测 UAF Write</text>

    <rect x="15" y="272" width="600" height="24" rx="0" fill="#fff" stroke="#fecaca" stroke-width="0.5"/>
    <text x="25" y="288" font-size="10" font-family="monospace" font-weight="bold" fill="#991b1b">POISON_END         0xA5</text>
    <text x="300" y="288" font-size="9" fill="#475569">对象数据区最后一字节 — 快速校验哨兵</text>

    <rect x="15" y="296" width="600" height="24" rx="0" fill="#fef2f2" stroke="#fecaca" stroke-width="0.5"/>
    <text x="25" y="312" font-size="10" font-family="monospace" font-weight="bold" fill="#991b1b">POISON_INUSE       0x5A</text>
    <text x="300" y="312" font-size="9" fill="#475569">Padding 区域 — 检测对象尾部溢出</text>

    <!-- Freelist hardening -->
    <text x="660" y="190" font-size="11" font-weight="bold" fill="#6366f1">Freelist 指针加固:</text>
    <rect x="660" y="200" width="560" height="120" rx="6" fill="#eef2ff" stroke="#6366f1" stroke-width="1"/>
    <text x="680" y="220" font-size="10" font-family="monospace" fill="#334155">encoded_fp = XOR(ptr, cache-&gt;random, swab(ptr_addr))</text>
    <text x="680" y="244" font-size="9" fill="#475569">→ Double-Free: 解码后 ptr 不在有效范围内，check_valid_pointer() 报错</text>
    <text x="680" y="266" font-size="9" fill="#475569">→ Corruption: 随机密钥使攻击者无法预测编码值</text>
    <text x="680" y="290" font-size="9" fill="#64748b">CONFIG_SLAB_FREELIST_HARDENED: init_cache_random_seq() 初始化 random</text>

    <!-- size relationship -->
    <text x="660" y="340" font-size="11" font-weight="bold" fill="#ea580c">大小关系:</text>
    <text x="660" y="358" font-size="10" font-family="monospace" fill="#334155">object_size ≤ inuse ≤ size</text>
  </g>

  <!-- ========== Connection lines ========== -->

  <!-- kmem_cache → slab (slab_cache back pointer) -->
  <path d="M390,170 L470,170" fill="none" stroke="#0891b2" stroke-width="2" marker-end="url(#aT)"/>
  <rect x="400" y="158" width="66" height="14" rx="3" fill="white" fill-opacity="0.95"/>
  <text x="433" y="169" text-anchor="middle" font-size="8" fill="#0891b2">slab_cache</text>

  <!-- slab.freelist → object layout -->
  <path d="M640,350 L640,380 L505,380 L505,500" fill="none" stroke="#ea580c" stroke-width="2" stroke-dasharray="4,2" marker-end="url(#aO)"/>
  <rect x="546" y="420" width="90" height="14" rx="3" fill="white" fill-opacity="0.95"/>
  <text x="591" y="431" text-anchor="middle" font-size="8" fill="#ea580c">freelist → FP chain</text>

  <!-- kmem_cache fields → object layout -->
  <path d="M210,440 L210,500" fill="none" stroke="#ea580c" stroke-width="2" stroke-dasharray="6,3" marker-end="url(#aO)"/>
  <rect x="150" y="460" width="130" height="14" rx="3" fill="white" fill-opacity="0.95"/>
  <text x="215" y="471" text-anchor="middle" font-size="8" fill="#ea580c">size/object_size/inuse</text>

  <!-- track in layout → struct track -->
  <path d="M615,500 L615,460 L940,460 L940,280" fill="none" stroke="#16a34a" stroke-width="1.5" stroke-dasharray="4,2" marker-end="url(#aG)"/>
  <rect x="760" y="380" width="94" height="14" rx="3" fill="white" fill-opacity="0.95"/>
  <text x="807" y="391" text-anchor="middle" font-size="8" fill="#16a34a">alloc/free track</text>

  <!-- ============ Flags legend ============ -->
  <g transform="translate(890,310)">
    <rect width="290" height="140" rx="8" fill="#fff" stroke="#475569" stroke-width="1.5" filter="url(#sh)"/>
    <text x="145" y="20" text-anchor="middle" font-size="11" font-weight="bold" fill="#334155">slub_debug 标志位</text>
    <line x1="10" y1="28" x2="280" y2="28" stroke="#e2e8f0" stroke-width="0.8"/>
    <text x="15" y="46" font-size="10" font-family="monospace" fill="#dc2626">F</text>
    <text x="35" y="46" font-size="9" fill="#475569">SLAB_CONSISTENCY_CHECKS — 一致性校验</text>
    <text x="15" y="64" font-size="10" font-family="monospace" fill="#dc2626">Z</text>
    <text x="35" y="64" font-size="9" fill="#475569">SLAB_RED_ZONE — Red Zone 哨兵</text>
    <text x="15" y="82" font-size="10" font-family="monospace" fill="#dc2626">P</text>
    <text x="35" y="82" font-size="9" fill="#475569">SLAB_POISON — Poison 填充</text>
    <text x="15" y="100" font-size="10" font-family="monospace" fill="#dc2626">U</text>
    <text x="35" y="100" font-size="9" fill="#475569">SLAB_STORE_USER — 调用栈追踪</text>
    <text x="15" y="118" font-size="10" font-family="monospace" fill="#dc2626">T</text>
    <text x="35" y="118" font-size="9" fill="#475569">SLAB_TRACE — 分配/释放跟踪</text>
    <text x="15" y="134" font-size="9" fill="#64748b">内核命令行: slub_debug=FPUZ[,cache-name]</text>
  </g>

  <!-- ========== Legend ========== -->
  <g transform="translate(470,420)">
    <rect width="340" height="34" rx="6" fill="white" fill-opacity="0.9" stroke="#cbd5e1" stroke-width="0.8"/>
    <line x1="10" y1="17" x2="40" y2="17" stroke="#0891b2" stroke-width="2"/>
    <text x="45" y="21" font-size="8" fill="#475569">指针引用</text>
    <line x1="100" y1="17" x2="130" y2="17" stroke="#ea580c" stroke-width="2" stroke-dasharray="4,2"/>
    <text x="135" y="21" font-size="8" fill="#475569">偏移定位</text>
    <line x1="200" y1="17" x2="230" y2="17" stroke="#16a34a" stroke-width="1.5" stroke-dasharray="4,2"/>
    <text x="235" y="21" font-size="8" fill="#475569">嵌入追踪数据</text>
  </g>
</svg>