<svg xmlns="http://www.w3.org/2000/svg" viewBox="0 0 1540 1200"
     font-family="'Segoe UI','Noto Sans SC',Arial,sans-serif">
  <defs>
    <filter id="sh"><feDropShadow dx="2" dy="2" stdDeviation="3" flood-opacity="0.15"/></filter>
    <!-- Header gradients -->
    <linearGradient id="hdrState" x1="0" y1="0" x2="1" y2="0">
      <stop offset="0%" stop-color="#1e40af"/><stop offset="100%" stop-color="#2563eb"/>
    </linearGradient>
    <linearGradient id="hdrNode" x1="0" y1="0" x2="1" y2="0">
      <stop offset="0%" stop-color="#0f766e"/><stop offset="100%" stop-color="#0d9488"/>
    </linearGradient>
    <linearGradient id="hdrData" x1="0" y1="0" x2="1" y2="0">
      <stop offset="0%" stop-color="#c2410c"/><stop offset="100%" stop-color="#ea580c"/>
    </linearGradient>
    <linearGradient id="hdrCb" x1="0" y1="0" x2="1" y2="0">
      <stop offset="0%" stop-color="#7e22ce"/><stop offset="100%" stop-color="#9333ea"/>
    </linearGradient>
    <linearGradient id="hdrSnap" x1="0" y1="0" x2="1" y2="0">
      <stop offset="0%" stop-color="#b91c1c"/><stop offset="100%" stop-color="#dc2626"/>
    </linearGradient>
    <!-- Arrow markers (stroke only, no fill) -->
    <marker id="aB" markerWidth="10" markerHeight="7" refX="9" refY="3.5" orient="auto">
      <path d="M1,1 L9,3.5 L1,6" fill="none" stroke="#2563eb" stroke-width="1.5" stroke-linejoin="round"/>
    </marker>
    <marker id="aG" markerWidth="10" markerHeight="7" refX="9" refY="3.5" orient="auto">
      <path d="M1,1 L9,3.5 L1,6" fill="none" stroke="#0d9488" stroke-width="1.5" stroke-linejoin="round"/>
    </marker>
    <marker id="aO" markerWidth="10" markerHeight="7" refX="9" refY="3.5" orient="auto">
      <path d="M1,1 L9,3.5 L1,6" fill="none" stroke="#ea580c" stroke-width="1.5" stroke-linejoin="round"/>
    </marker>
    <marker id="aP" markerWidth="10" markerHeight="7" refX="9" refY="3.5" orient="auto">
      <path d="M1,1 L9,3.5 L1,6" fill="none" stroke="#9333ea" stroke-width="1.5" stroke-linejoin="round"/>
    </marker>
    <marker id="aR" markerWidth="10" markerHeight="7" refX="9" refY="3.5" orient="auto">
      <path d="M1,1 L9,3.5 L1,6" fill="none" stroke="#dc2626" stroke-width="1.5" stroke-linejoin="round"/>
    </marker>
    <marker id="aK" markerWidth="10" markerHeight="7" refX="9" refY="3.5" orient="auto">
      <path d="M1,1 L9,3.5 L1,6" fill="none" stroke="#475569" stroke-width="1.5" stroke-linejoin="round"/>
    </marker>
    <!-- Diamond marker (composition) -->
    <marker id="dB" markerWidth="12" markerHeight="8" refX="1" refY="4" orient="auto">
      <path d="M1,4 L6,1 L11,4 L6,7 Z" fill="#fff" stroke="#2563eb" stroke-width="1.5"/>
    </marker>
  </defs>

  <!-- ===== Title ===== -->
  <text x="750" y="30" text-anchor="middle" font-size="20" font-weight="bold" fill="#1e293b">Linux RCU Tree 软件架构</text>
  <text x="750" y="52" text-anchor="middle" font-size="12" fill="#64748b">kernel/rcu/tree.h · kernel/rcu/tree.c · Linux 6.18.1</text>

  <!-- ===== GP kthread box (dashed) ===== -->
  <g transform="translate(95,115)">
    <rect width="200" height="80" rx="10" fill="#f1f5f9" stroke="#475569" stroke-width="1.5" stroke-dasharray="5,3"/>
    <text x="100" y="22" text-anchor="middle" font-size="11" font-weight="bold" fill="#475569">rcu_gp_kthread</text>
    <line x1="10" y1="30" x2="190" y2="30" stroke="#cbd5e1" stroke-width="0.8"/>
    <text x="100" y="48" text-anchor="middle" font-size="10" fill="#64748b">GP 状态机驱动线程</text>
    <text x="100" y="65" text-anchor="middle" font-size="10" fill="#64748b">管理 Grace Period 生命周期</text>
  </g>

  <!-- ===== rcu_state ===== -->
  <g transform="translate(475,75)">
    <rect width="330" height="240" rx="8" fill="#fff" stroke="#2563eb" stroke-width="2" filter="url(#sh)"/>
    <rect width="330" height="30" rx="8" fill="url(#hdrState)"/>
    <rect x="0" y="22" width="330" height="8" fill="#2563eb"/>
    <text x="165" y="21" text-anchor="middle" font-size="14" font-weight="bold" fill="#fff">struct rcu_state</text>
    <text x="15" y="46" font-size="10" fill="#2563eb" font-weight="bold">全局 RCU 管理结构（唯一实例）</text>
    <line x1="10" y1="54" x2="320" y2="54" stroke="#bfdbfe" stroke-width="0.8"/>
    <text x="15" y="72" font-size="11" font-family="monospace" fill="#0d9488">node[NUM_RCU_NODES]</text>
    <text x="220" y="72" font-size="10" fill="#64748b">树节点数组</text>
    <text x="15" y="90" font-size="11" font-family="monospace" fill="#1e293b">level[]</text>
    <text x="220" y="90" font-size="10" fill="#64748b">层级指针</text>
    <text x="15" y="108" font-size="11" font-family="monospace" fill="#1e293b">gp_seq</text>
    <text x="220" y="108" font-size="10" fill="#64748b">GP 序列号</text>
    <text x="15" y="126" font-size="11" font-family="monospace" fill="#1e293b">gp_state</text>
    <text x="220" y="126" font-size="10" fill="#64748b">GP 状态机</text>
    <text x="15" y="144" font-size="11" font-family="monospace" fill="#1e293b">gp_flags</text>
    <text x="220" y="144" font-size="10" fill="#64748b">GP 请求标志</text>
    <text x="15" y="162" font-size="11" font-family="monospace" fill="#475569">gp_kthread</text>
    <text x="220" y="162" font-size="10" fill="#64748b">GP 内核线程</text>
    <text x="15" y="180" font-size="11" font-family="monospace" fill="#dc2626">jiffies_stall</text>
    <text x="220" y="180" font-size="10" fill="#64748b">Stall 检测时间点</text>
    <text x="15" y="198" font-size="11" font-family="monospace" fill="#1e293b">gp_activity</text>
    <text x="220" y="198" font-size="10" fill="#64748b">最后活动时间</text>
  </g>

  <!-- ===== rcu_node (root, level=0) ===== -->
  <g transform="translate(490,395)">
    <rect width="300" height="200" rx="8" fill="#fff" stroke="#0d9488" stroke-width="2" filter="url(#sh)"/>
    <rect width="300" height="30" rx="8" fill="url(#hdrNode)"/>
    <rect x="0" y="22" width="300" height="8" fill="#0d9488"/>
    <text x="150" y="21" text-anchor="middle" font-size="14" font-weight="bold" fill="#fff">struct rcu_node [root]</text>
    <text x="15" y="46" font-size="10" fill="#0d9488" font-weight="bold">层级树根节点 (level=0)</text>
    <line x1="10" y1="54" x2="290" y2="54" stroke="#99f6e4" stroke-width="0.8"/>
    <text x="15" y="72" font-size="11" font-family="monospace" fill="#1e293b">lock</text>
    <text x="195" y="72" font-size="10" fill="#64748b">raw_spinlock_t</text>
    <text x="15" y="90" font-size="11" font-family="monospace" fill="#1e293b">gp_seq</text>
    <text x="195" y="90" font-size="10" fill="#64748b">节点 GP 序列号</text>
    <text x="15" y="108" font-size="11" font-family="monospace" fill="#dc2626">qsmask</text>
    <text x="195" y="108" font-size="10" fill="#64748b">QS 上报位图</text>
    <text x="15" y="126" font-size="11" font-family="monospace" fill="#1e293b">qsmaskinit</text>
    <text x="195" y="126" font-size="10" fill="#64748b">初始 QS 位图</text>
    <text x="15" y="144" font-size="11" font-family="monospace" fill="#1e293b">grplo / grphi</text>
    <text x="195" y="144" font-size="10" fill="#64748b">CPU 范围</text>
    <text x="15" y="162" font-size="11" font-family="monospace" fill="#0d9488">parent</text>
    <text x="195" y="162" font-size="10" fill="#64748b">NULL（根节点）</text>
    <text x="15" y="180" font-size="11" font-family="monospace" fill="#9333ea">blkd_tasks</text>
    <text x="195" y="180" font-size="10" fill="#64748b">阻塞任务链表</text>
  </g>

  <!-- ===== rcu_node (leaf 0) ===== -->
  <g transform="translate(105,670)">
    <rect width="270" height="180" rx="8" fill="#fff" stroke="#0d9488" stroke-width="2" filter="url(#sh)"/>
    <rect width="270" height="30" rx="8" fill="url(#hdrNode)"/>
    <rect x="0" y="22" width="270" height="8" fill="#0d9488"/>
    <text x="135" y="21" text-anchor="middle" font-size="13" font-weight="bold" fill="#fff">struct rcu_node [leaf 0]</text>
    <text x="15" y="46" font-size="10" fill="#0d9488" font-weight="bold">叶节点 (level=1, CPUs 0-1)</text>
    <line x1="10" y1="54" x2="260" y2="54" stroke="#99f6e4" stroke-width="0.8"/>
    <text x="15" y="72" font-size="11" font-family="monospace" fill="#dc2626">qsmask</text>
    <text x="175" y="72" font-size="10" fill="#64748b">0b11 (CPU0,1)</text>
    <text x="15" y="90" font-size="11" font-family="monospace" fill="#1e293b">qsmaskinit</text>
    <text x="175" y="90" font-size="10" fill="#64748b">初始 QS 位图</text>
    <text x="15" y="108" font-size="11" font-family="monospace" fill="#1e293b">grplo=0, grphi=1</text>
    <text x="15" y="126" font-size="11" font-family="monospace" fill="#1e293b">grpmask</text>
    <text x="175" y="126" font-size="10" fill="#64748b">父节点中的位</text>
    <text x="15" y="144" font-size="11" font-family="monospace" fill="#0d9488">parent</text>
    <text x="175" y="144" font-size="10" fill="#64748b">→ root node</text>
    <text x="15" y="162" font-size="11" font-family="monospace" fill="#ea580c">cbovldmask</text>
    <text x="175" y="162" font-size="10" fill="#64748b">CB 过载掩码</text>
  </g>

  <!-- ===== rcu_node (leaf 1) ===== -->
  <g transform="translate(790,670)">
    <rect width="270" height="180" rx="8" fill="#fff" stroke="#0d9488" stroke-width="2" filter="url(#sh)"/>
    <rect width="270" height="30" rx="8" fill="url(#hdrNode)"/>
    <rect x="0" y="22" width="270" height="8" fill="#0d9488"/>
    <text x="135" y="21" text-anchor="middle" font-size="13" font-weight="bold" fill="#fff">struct rcu_node [leaf 1]</text>
    <text x="15" y="46" font-size="10" fill="#0d9488" font-weight="bold">叶节点 (level=1, CPUs 2-3)</text>
    <line x1="10" y1="54" x2="260" y2="54" stroke="#99f6e4" stroke-width="0.8"/>
    <text x="15" y="72" font-size="11" font-family="monospace" fill="#dc2626">qsmask</text>
    <text x="175" y="72" font-size="10" fill="#64748b">0b11 (CPU2,3)</text>
    <text x="15" y="90" font-size="11" font-family="monospace" fill="#1e293b">qsmaskinit</text>
    <text x="175" y="90" font-size="10" fill="#64748b">初始 QS 位图</text>
    <text x="15" y="108" font-size="11" font-family="monospace" fill="#1e293b">grplo=2, grphi=3</text>
    <text x="15" y="126" font-size="11" font-family="monospace" fill="#1e293b">grpmask</text>
    <text x="175" y="126" font-size="10" fill="#64748b">父节点中的位</text>
    <text x="15" y="144" font-size="11" font-family="monospace" fill="#0d9488">parent</text>
    <text x="175" y="144" font-size="10" fill="#64748b">→ root node</text>
    <text x="15" y="162" font-size="11" font-family="monospace" fill="#ea580c">cbovldmask</text>
    <text x="175" y="162" font-size="10" fill="#64748b">CB 过载掩码</text>
  </g>

  <!-- ===== rcu_data [CPU 0] ===== -->
  <g transform="translate(30,935)">
    <rect width="205" height="180" rx="8" fill="#fff" stroke="#ea580c" stroke-width="2" filter="url(#sh)"/>
    <rect width="205" height="30" rx="8" fill="url(#hdrData)"/>
    <rect x="0" y="22" width="205" height="8" fill="#ea580c"/>
    <text x="102" y="21" text-anchor="middle" font-size="13" font-weight="bold" fill="#fff">rcu_data [CPU 0]</text>
    <text x="12" y="46" font-size="9" fill="#ea580c" font-weight="bold">Per-CPU RCU 数据</text>
    <line x1="8" y1="53" x2="197" y2="53" stroke="#fed7aa" stroke-width="0.8"/>
    <text x="12" y="68" font-size="10" font-family="monospace" fill="#1e293b">gp_seq</text>
    <text x="110" y="68" font-size="9" fill="#64748b">CPU GP 视图</text>
    <text x="12" y="84" font-size="10" font-family="monospace" fill="#dc2626">cpu_no_qs</text>
    <text x="110" y="84" font-size="9" fill="#64748b">QS 未上报</text>
    <text x="12" y="100" font-size="10" font-family="monospace" fill="#0d9488">mynode</text>
    <text x="110" y="100" font-size="9" fill="#64748b">→ leaf node</text>
    <text x="12" y="116" font-size="10" font-family="monospace" fill="#9333ea">cblist</text>
    <text x="110" y="116" font-size="9" fill="#64748b">分段回调链表</text>
    <text x="12" y="132" font-size="10" font-family="monospace" fill="#dc2626">snap_record</text>
    <text x="110" y="132" font-size="9" fill="#64748b">Stall 快照</text>
    <text x="12" y="148" font-size="10" font-family="monospace" fill="#1e293b">rcu_urgent_qs</text>
    <text x="110" y="148" font-size="9" fill="#64748b">紧急 QS</text>
    <text x="12" y="164" font-size="10" font-family="monospace" fill="#1e293b">grpmask</text>
    <text x="110" y="164" font-size="9" fill="#64748b">叶节点中的位</text>
  </g>

  <!-- ===== rcu_data [CPU 1] ===== -->
  <g transform="translate(275,935)">
    <rect width="205" height="180" rx="8" fill="#fff" stroke="#ea580c" stroke-width="2" filter="url(#sh)"/>
    <rect width="205" height="30" rx="8" fill="url(#hdrData)"/>
    <rect x="0" y="22" width="205" height="8" fill="#ea580c"/>
    <text x="102" y="21" text-anchor="middle" font-size="13" font-weight="bold" fill="#fff">rcu_data [CPU 1]</text>
    <text x="12" y="46" font-size="9" fill="#ea580c" font-weight="bold">Per-CPU RCU 数据</text>
    <line x1="8" y1="53" x2="197" y2="53" stroke="#fed7aa" stroke-width="0.8"/>
    <text x="12" y="68" font-size="10" font-family="monospace" fill="#1e293b">gp_seq</text>
    <text x="12" y="84" font-size="10" font-family="monospace" fill="#dc2626">cpu_no_qs</text>
    <text x="12" y="100" font-size="10" font-family="monospace" fill="#0d9488">mynode</text>
    <text x="110" y="100" font-size="9" fill="#64748b">→ leaf node</text>
    <text x="12" y="116" font-size="10" font-family="monospace" fill="#9333ea">cblist</text>
    <text x="12" y="132" font-size="10" font-family="monospace" fill="#dc2626">snap_record</text>
    <text x="12" y="148" font-size="10" font-family="monospace" fill="#1e293b">rcu_urgent_qs</text>
    <text x="12" y="164" font-size="10" font-family="monospace" fill="#1e293b">grpmask</text>
  </g>

  <!-- ===== rcu_data [CPU 2] ===== -->
  <g transform="translate(710,935)">
    <rect width="205" height="180" rx="8" fill="#fff" stroke="#ea580c" stroke-width="2" filter="url(#sh)"/>
    <rect width="205" height="30" rx="8" fill="url(#hdrData)"/>
    <rect x="0" y="22" width="205" height="8" fill="#ea580c"/>
    <text x="102" y="21" text-anchor="middle" font-size="13" font-weight="bold" fill="#fff">rcu_data [CPU 2]</text>
    <text x="12" y="46" font-size="9" fill="#ea580c" font-weight="bold">Per-CPU RCU 数据</text>
    <line x1="8" y1="53" x2="197" y2="53" stroke="#fed7aa" stroke-width="0.8"/>
    <text x="12" y="68" font-size="10" font-family="monospace" fill="#1e293b">gp_seq</text>
    <text x="12" y="84" font-size="10" font-family="monospace" fill="#dc2626">cpu_no_qs</text>
    <text x="12" y="100" font-size="10" font-family="monospace" fill="#0d9488">mynode</text>
    <text x="110" y="100" font-size="9" fill="#64748b">→ leaf node</text>
    <text x="12" y="116" font-size="10" font-family="monospace" fill="#9333ea">cblist</text>
    <text x="12" y="132" font-size="10" font-family="monospace" fill="#dc2626">snap_record</text>
    <text x="12" y="148" font-size="10" font-family="monospace" fill="#1e293b">rcu_urgent_qs</text>
    <text x="12" y="164" font-size="10" font-family="monospace" fill="#1e293b">grpmask</text>
  </g>

  <!-- ===== rcu_data [CPU 3] ===== -->
  <g transform="translate(955,935)">
    <rect width="205" height="180" rx="8" fill="#fff" stroke="#ea580c" stroke-width="2" filter="url(#sh)"/>
    <rect width="205" height="30" rx="8" fill="url(#hdrData)"/>
    <rect x="0" y="22" width="205" height="8" fill="#ea580c"/>
    <text x="102" y="21" text-anchor="middle" font-size="13" font-weight="bold" fill="#fff">rcu_data [CPU 3]</text>
    <text x="12" y="46" font-size="9" fill="#ea580c" font-weight="bold">Per-CPU RCU 数据</text>
    <line x1="8" y1="53" x2="197" y2="53" stroke="#fed7aa" stroke-width="0.8"/>
    <text x="12" y="68" font-size="10" font-family="monospace" fill="#1e293b">gp_seq</text>
    <text x="12" y="84" font-size="10" font-family="monospace" fill="#dc2626">cpu_no_qs</text>
    <text x="12" y="100" font-size="10" font-family="monospace" fill="#0d9488">mynode</text>
    <text x="110" y="100" font-size="9" fill="#64748b">→ leaf node</text>
    <text x="12" y="116" font-size="10" font-family="monospace" fill="#9333ea">cblist</text>
    <text x="12" y="132" font-size="10" font-family="monospace" fill="#dc2626">snap_record</text>
    <text x="12" y="148" font-size="10" font-family="monospace" fill="#1e293b">rcu_urgent_qs</text>
    <text x="12" y="164" font-size="10" font-family="monospace" fill="#1e293b">grpmask</text>
  </g>

  <!-- ===== rcu_segcblist ===== -->
  <g transform="translate(1240,370)">
    <rect width="250" height="245" rx="8" fill="#fff" stroke="#9333ea" stroke-width="2" filter="url(#sh)"/>
    <rect width="250" height="30" rx="8" fill="url(#hdrCb)"/>
    <rect x="0" y="22" width="250" height="8" fill="#9333ea"/>
    <text x="125" y="21" text-anchor="middle" font-size="13" font-weight="bold" fill="#fff">struct rcu_segcblist</text>
    <text x="15" y="46" font-size="10" fill="#9333ea" font-weight="bold">分段回调链表 (嵌入 rcu_data)</text>
    <line x1="10" y1="54" x2="240" y2="54" stroke="#e9d5ff" stroke-width="0.8"/>
    <text x="15" y="72" font-size="11" font-family="monospace" fill="#1e293b">head</text>
    <text x="150" y="72" font-size="10" fill="#64748b">链表头指针</text>
    <text x="15" y="90" font-size="11" font-family="monospace" fill="#1e293b">tails[4]</text>
    <text x="150" y="90" font-size="10" fill="#64748b">4 段尾指针</text>
    <text x="15" y="108" font-size="11" font-family="monospace" fill="#1e293b">len</text>
    <text x="150" y="108" font-size="10" fill="#64748b">callback 数量</text>
    <text x="15" y="126" font-size="11" font-family="monospace" fill="#1e293b">flags</text>
    <text x="150" y="126" font-size="10" fill="#64748b">SEGCBLIST_*</text>
    <line x1="10" y1="136" x2="240" y2="136" stroke="#e9d5ff" stroke-width="0.8"/>
    <text x="15" y="152" font-size="10" fill="#9333ea" font-weight="bold">4 段回调流水线:</text>
    <!-- 4 colored segment boxes -->
    <rect x="15" y="160" width="50" height="20" rx="3" fill="#dcfce7" stroke="#16a34a" stroke-width="1"/>
    <text x="40" y="174" text-anchor="middle" font-size="9" font-weight="bold" fill="#16a34a">DONE</text>
    <rect x="72" y="160" width="50" height="20" rx="3" fill="#fef9c3" stroke="#ca8a04" stroke-width="1"/>
    <text x="97" y="174" text-anchor="middle" font-size="9" font-weight="bold" fill="#ca8a04">WAIT</text>
    <rect x="129" y="160" width="55" height="20" rx="3" fill="#ffe4e6" stroke="#e11d48" stroke-width="1"/>
    <text x="156" y="174" text-anchor="middle" font-size="9" font-weight="bold" fill="#e11d48">READY</text>
    <rect x="191" y="160" width="48" height="20" rx="3" fill="#e0e7ff" stroke="#4f46e5" stroke-width="1"/>
    <text x="215" y="174" text-anchor="middle" font-size="9" font-weight="bold" fill="#4f46e5">NEXT</text>
    <!-- Flow description -->
    <text x="15" y="198" font-size="9" fill="#64748b">流转: NEXT → READY → WAIT → DONE</text>
    <text x="15" y="214" font-size="9" fill="#16a34a">✓ DONE: GP 已完成, 回调可执行</text>
    <text x="15" y="230" font-size="9" fill="#ca8a04">⏳ 其余段: 等待相应 GP 完成</text>
  </g>

  <!-- ===== rcu_snap_record ===== -->
  <g transform="translate(1240,700)">
    <rect width="250" height="185" rx="8" fill="#fff" stroke="#dc2626" stroke-width="2" filter="url(#sh)"/>
    <rect width="250" height="30" rx="8" fill="url(#hdrSnap)"/>
    <rect x="0" y="22" width="250" height="8" fill="#dc2626"/>
    <text x="125" y="21" text-anchor="middle" font-size="13" font-weight="bold" fill="#fff">struct rcu_snap_record</text>
    <text x="15" y="46" font-size="10" fill="#dc2626" font-weight="bold">Stall 诊断 CPU 活动快照</text>
    <line x1="10" y1="54" x2="240" y2="54" stroke="#fecaca" stroke-width="0.8"/>
    <text x="15" y="72" font-size="11" font-family="monospace" fill="#1e293b">gp_seq</text>
    <text x="155" y="72" font-size="10" fill="#64748b">快照 GP 序列号</text>
    <text x="15" y="90" font-size="11" font-family="monospace" fill="#1e293b">cputime_irq</text>
    <text x="155" y="90" font-size="10" fill="#64748b">硬中断 cputime</text>
    <text x="15" y="108" font-size="11" font-family="monospace" fill="#1e293b">cputime_softirq</text>
    <text x="155" y="108" font-size="10" fill="#64748b">软中断 cputime</text>
    <text x="15" y="126" font-size="11" font-family="monospace" fill="#1e293b">nr_hardirqs</text>
    <text x="155" y="126" font-size="10" fill="#64748b">硬中断次数</text>
    <text x="15" y="144" font-size="11" font-family="monospace" fill="#1e293b">nr_csw</text>
    <text x="155" y="144" font-size="10" fill="#64748b">上下文切换次数</text>
    <text x="15" y="162" font-size="11" font-family="monospace" fill="#1e293b">jiffies</text>
    <text x="155" y="162" font-size="10" fill="#64748b">快照时间戳</text>
  </g>

  <!-- ===== QS Report Flow (info box) ===== -->
  <g transform="translate(1240,965)">
    <rect width="250" height="185" rx="10" fill="#f0fdf4" stroke="#16a34a" stroke-width="1.5" stroke-dasharray="5,3"/>
    <text x="125" y="22" text-anchor="middle" font-size="12" font-weight="bold" fill="#16a34a">QS 上报流程 (↑)</text>
    <line x1="10" y1="30" x2="240" y2="30" stroke="#bbf7d0" stroke-width="0.8"/>
    <text x="15" y="50" font-size="10" fill="#15803d">1. CPU 上下文切换 / 进入 idle</text>
    <text x="15" y="68" font-size="10" fill="#15803d">2. rdp-&gt;cpu_no_qs = 0</text>
    <text x="15" y="86" font-size="10" fill="#15803d">3. 叶节点 qsmask bit 清零</text>
    <text x="15" y="104" font-size="10" fill="#15803d">4. 叶 qsmask==0 → 向上传播</text>
    <text x="15" y="122" font-size="10" fill="#15803d">5. 逐级清零父节点 qsmask</text>
    <text x="15" y="140" font-size="10" fill="#15803d">6. 根 qsmask==0 → GP 完成</text>
    <text x="15" y="164" font-size="10" fill="#15803d" font-weight="bold">rcu_report_qs_rnp()</text>
    <text x="15" y="178" font-size="10" fill="#15803d" font-weight="bold">rcu_gp_cleanup()</text>
  </g>

  <!-- ============================== -->
  <!-- ===== CONNECTION LINES ======= -->
  <!-- ============================== -->

  <!-- 1. GP kthread → rcu_state.gp_kthread -->
  <path d="M295,155 L385,155 L385,195 L475,195" fill="none" stroke="#475569" stroke-width="1.5" stroke-dasharray="5,3" marker-end="url(#aK)"/>
  <rect x="338" y="138" width="76" height="16" rx="3" fill="white" fill-opacity="0.95"/>
  <text x="376" y="150" text-anchor="middle" font-size="9" fill="#475569" font-weight="bold">gp_kthread</text>

  <!-- 2. rcu_state.node[] → rcu_node root (composition) -->
  <path d="M640,315 L640,395" fill="none" stroke="#2563eb" stroke-width="2.5" marker-start="url(#dB)" marker-end="url(#aB)"/>
  <rect x="604" y="347" width="72" height="16" rx="3" fill="white" fill-opacity="0.95"/>
  <text x="640" y="359" text-anchor="middle" font-size="10" fill="#2563eb" font-weight="bold">node[]</text>

  <!-- 3. rcu_node root → leaf 0 -->
  <path d="M565,595 L565,630 L240,630 L240,670" fill="none" stroke="#0d9488" stroke-width="2" marker-end="url(#aG)"/>
  <rect x="345" y="620" width="110" height="16" rx="3" fill="white" fill-opacity="0.95"/>
  <text x="400" y="632" text-anchor="middle" font-size="10" fill="#0d9488">qsmask bit 0</text>

  <!-- 4. rcu_node root → leaf 1 -->
  <path d="M715,595 L715,630 L925,630 L925,670" fill="none" stroke="#0d9488" stroke-width="2" marker-end="url(#aG)"/>
  <rect x="765" y="620" width="110" height="16" rx="3" fill="white" fill-opacity="0.95"/>
  <text x="820" y="632" text-anchor="middle" font-size="10" fill="#0d9488">qsmask bit 1</text>

  <!-- 5. leaf 0 parent → root (back-reference, dashed) -->
  <path d="M105,814 L70,814 L70,495 L490,495" fill="none" stroke="#0d9488" stroke-width="1.5" stroke-dasharray="4,2" marker-end="url(#aG)"/>
  <rect x="42" y="648" width="56" height="16" rx="3" fill="white" fill-opacity="0.95"/>
  <text x="70" y="660" text-anchor="middle" font-size="9" fill="#0d9488">parent</text>

  <!-- 6. leaf 0 → rcu_data CPU 0 -->
  <path d="M185,850 L185,890 L132,890 L132,935" fill="none" stroke="#ea580c" stroke-width="2" marker-end="url(#aO)"/>
  <rect x="107" y="900" width="50" height="14" rx="3" fill="white" fill-opacity="0.95"/>
  <text x="132" y="911" text-anchor="middle" font-size="9" fill="#ea580c">CPU 0</text>

  <!-- 7. leaf 0 → rcu_data CPU 1 -->
  <path d="M295,850 L295,890 L377,890 L377,935" fill="none" stroke="#ea580c" stroke-width="2" marker-end="url(#aO)"/>
  <rect x="352" y="900" width="50" height="14" rx="3" fill="white" fill-opacity="0.95"/>
  <text x="377" y="911" text-anchor="middle" font-size="9" fill="#ea580c">CPU 1</text>

  <!-- 8. leaf 1 → rcu_data CPU 2 -->
  <path d="M870,850 L870,890 L812,890 L812,935" fill="none" stroke="#ea580c" stroke-width="2" marker-end="url(#aO)"/>
  <rect x="787" y="900" width="50" height="14" rx="3" fill="white" fill-opacity="0.95"/>
  <text x="812" y="911" text-anchor="middle" font-size="9" fill="#ea580c">CPU 2</text>

  <!-- 9. leaf 1 → rcu_data CPU 3 -->
  <path d="M980,850 L980,890 L1057,890 L1057,935" fill="none" stroke="#ea580c" stroke-width="2" marker-end="url(#aO)"/>
  <rect x="1032" y="900" width="50" height="14" rx="3" fill="white" fill-opacity="0.95"/>
  <text x="1057" y="911" text-anchor="middle" font-size="9" fill="#ea580c">CPU 3</text>

  <!-- 10. rcu_data.cblist → rcu_segcblist (embedded struct ref) -->
  <path d="M915,1051 L1095,1051 L1095,507 L1240,507" fill="none" stroke="#9333ea" stroke-width="2" stroke-dasharray="6,3" marker-end="url(#aP)"/>
  <rect x="1050" y="770" width="85" height="16" rx="3" fill="white" fill-opacity="0.95"/>
  <text x="1092" y="782" text-anchor="middle" font-size="9" fill="#9333ea" font-weight="bold">cblist (嵌入)</text>

  <!-- 11. rcu_data.snap_record → rcu_snap_record (embedded struct ref) -->
  <path d="M1160,1067 L1185,1067 L1185,810 L1240,810" fill="none" stroke="#dc2626" stroke-width="1.5" stroke-dasharray="4,2" marker-end="url(#aR)"/>
  <rect x="1140" y="930" width="90" height="16" rx="3" fill="white" fill-opacity="0.95"/>
  <text x="1185" y="942" text-anchor="middle" font-size="9" fill="#dc2626">snap_record (嵌入)</text>

  <!-- ===== Level labels (left side) ===== -->
  <text x="18" y="498" font-size="11" fill="#94a3b8" font-weight="bold" transform="rotate(-90,18,498)">Level 0 (root)</text>
  <text x="18" y="762" font-size="11" fill="#94a3b8" font-weight="bold" transform="rotate(-90,18,762)">Level 1 (leaf)</text>
  <text x="18" y="1038" font-size="11" fill="#94a3b8" font-weight="bold" transform="rotate(-90,18,1038)">Per-CPU Data</text>

  <!-- ===== Legend ===== -->
  <g transform="translate(95,230)">
    <rect width="210" height="140" rx="6" fill="white" fill-opacity="0.92" stroke="#94a3b8" stroke-width="1"/>
    <text x="105" y="18" text-anchor="middle" font-size="11" font-weight="bold" fill="#334155">图例</text>
    <line x1="10" y1="24" x2="200" y2="24" stroke="#e2e8f0" stroke-width="0.8"/>
    <!-- Composition -->
    <line x1="15" y1="42" x2="55" y2="42" stroke="#2563eb" stroke-width="2.5"/>
    <path d="M15,42 L22,38 L29,42 L22,46 Z" fill="#fff" stroke="#2563eb" stroke-width="1.5"/>
    <text x="65" y="46" font-size="10" fill="#334155">组合/拥有 (内嵌数组)</text>
    <!-- Tree association -->
    <line x1="15" y1="62" x2="55" y2="62" stroke="#0d9488" stroke-width="2"/>
    <text x="65" y="66" font-size="10" fill="#334155">树层级关联</text>
    <!-- Back reference -->
    <line x1="15" y1="82" x2="55" y2="82" stroke="#0d9488" stroke-width="1.5" stroke-dasharray="4,2"/>
    <text x="65" y="86" font-size="10" fill="#334155">反向引用 (parent/mynode)</text>
    <!-- Embedded struct -->
    <line x1="15" y1="102" x2="55" y2="102" stroke="#9333ea" stroke-width="2" stroke-dasharray="6,3"/>
    <text x="65" y="106" font-size="10" fill="#334155">嵌入结构 (cblist)</text>
    <!-- Diagnostic ref -->
    <line x1="15" y1="122" x2="55" y2="122" stroke="#dc2626" stroke-width="1.5" stroke-dasharray="4,2"/>
    <text x="65" y="126" font-size="10" fill="#334155">诊断引用 (snap_record)</text>
  </g>
</svg>
