<svg xmlns="http://www.w3.org/2000/svg" viewBox="0 0 1200 920" font-family="'Segoe UI','Noto Sans SC',Arial,sans-serif">
  <defs>
    <filter id="sh"><feDropShadow dx="2" dy="2" stdDeviation="2.5" flood-opacity="0.13"/></filter>
    <linearGradient id="hGlobal" x1="0" y1="0" x2="1" y2="0"><stop offset="0%" stop-color="#2563EB"/><stop offset="100%" stop-color="#60A5FA"/></linearGradient>
    <linearGradient id="hPerCPU" x1="0" y1="0" x2="1" y2="0"><stop offset="0%" stop-color="#059669"/><stop offset="100%" stop-color="#34D399"/></linearGradient>
    <linearGradient id="hTimer"  x1="0" y1="0" x2="1" y2="0"><stop offset="0%" stop-color="#DC2626"/><stop offset="100%" stop-color="#F87171"/></linearGradient>
    <linearGradient id="hStop"   x1="0" y1="0" x2="1" y2="0"><stop offset="0%" stop-color="#7C3AED"/><stop offset="100%" stop-color="#A78BFA"/></linearGradient>
    <linearGradient id="hComp"   x1="0" y1="0" x2="1" y2="0"><stop offset="0%" stop-color="#D97706"/><stop offset="100%" stop-color="#FBBF24"/></linearGradient>
    <linearGradient id="hStat"   x1="0" y1="0" x2="1" y2="0"><stop offset="0%" stop-color="#0891B2"/><stop offset="100%" stop-color="#67E8F9"/></linearGradient>
    <linearGradient id="hMask"   x1="0" y1="0" x2="1" y2="0"><stop offset="0%" stop-color="#BE185D"/><stop offset="100%" stop-color="#F9A8D4"/></linearGradient>
    <!-- Arrow markers -->
    <marker id="aB" markerWidth="10" markerHeight="7" refX="9" refY="3.5" orient="auto"><path d="M1,1 L9,3.5 L1,6" fill="none" stroke="#2563EB" stroke-width="1.5" stroke-linejoin="round"/></marker>
    <marker id="aG" markerWidth="10" markerHeight="7" refX="9" refY="3.5" orient="auto"><path d="M1,1 L9,3.5 L1,6" fill="none" stroke="#059669" stroke-width="1.5" stroke-linejoin="round"/></marker>
    <marker id="aR" markerWidth="10" markerHeight="7" refX="9" refY="3.5" orient="auto"><path d="M1,1 L9,3.5 L1,6" fill="none" stroke="#DC2626" stroke-width="1.5" stroke-linejoin="round"/></marker>
    <marker id="aP" markerWidth="10" markerHeight="7" refX="9" refY="3.5" orient="auto"><path d="M1,1 L9,3.5 L1,6" fill="none" stroke="#7C3AED" stroke-width="1.5" stroke-linejoin="round"/></marker>
    <marker id="aO" markerWidth="10" markerHeight="7" refX="9" refY="3.5" orient="auto"><path d="M1,1 L9,3.5 L1,6" fill="none" stroke="#D97706" stroke-width="1.5" stroke-linejoin="round"/></marker>
    <marker id="aC" markerWidth="10" markerHeight="7" refX="9" refY="3.5" orient="auto"><path d="M1,1 L9,3.5 L1,6" fill="none" stroke="#0891B2" stroke-width="1.5" stroke-linejoin="round"/></marker>
    <marker id="aK" markerWidth="10" markerHeight="7" refX="9" refY="3.5" orient="auto"><path d="M1,1 L9,3.5 L1,6" fill="none" stroke="#475569" stroke-width="1.5" stroke-linejoin="round"/></marker>
    <marker id="aM" markerWidth="10" markerHeight="7" refX="9" refY="3.5" orient="auto"><path d="M1,1 L9,3.5 L1,6" fill="none" stroke="#BE185D" stroke-width="1.5" stroke-linejoin="round"/></marker>
  </defs>

  <!-- Title -->
  <text x="600" y="30" text-anchor="middle" font-size="18" font-weight="bold" fill="#1E293B">Softlockup 关键数据结构关系图</text>
  <text x="600" y="50" text-anchor="middle" font-size="11" fill="#64748B">kernel/watchdog.c · include/linux/nmi.h · Linux 6.18.1</text>

  <!-- ========== Box 1: Global Control Variables (Blue) ========== -->
  <g transform="translate(40,80)" filter="url(#sh)">
    <rect width="320" height="230" rx="8" fill="#fff" stroke="#2563EB" stroke-width="2"/>
    <rect width="320" height="30" rx="8" fill="url(#hGlobal)"/>
    <rect x="0" y="22" width="320" height="8" fill="#60A5FA"/>
    <text x="160" y="20" text-anchor="middle" font-size="14" font-weight="bold" fill="#fff">全局控制变量</text>
    <text x="160" y="45" text-anchor="middle" font-size="10" fill="#2563EB" font-weight="bold">配置 &amp; 使能状态</text>
    <line x1="10" y1="52" x2="310" y2="52" stroke="#BFDBFE" stroke-width="0.8"/>
    <text x="15" y="68" font-size="11" fill="#1E293B" font-family="monospace">watchdog_enabled</text>
    <text x="210" y="68" font-size="9" fill="#94A3B8">unsigned long, 位掩码</text>
    <text x="15" y="86" font-size="11" fill="#1E293B" font-family="monospace">watchdog_user_enabled</text>
    <text x="250" y="86" font-size="9" fill="#94A3B8">int, 0/1</text>
    <text x="15" y="104" font-size="11" fill="#1E293B" font-family="monospace">watchdog_thresh</text>
    <text x="210" y="104" font-size="9" fill="#94A3B8">int, 默认 10 秒</text>
    <text x="15" y="122" font-size="11" fill="#1E293B" font-family="monospace">sample_period</text>
    <text x="210" y="122" font-size="9" fill="#94A3B8">u64, 纳秒</text>
    <text x="15" y="140" font-size="11" fill="#1E293B" font-family="monospace">softlockup_panic</text>
    <text x="210" y="140" font-size="9" fill="#94A3B8">unsigned int, 0/1</text>
    <text x="15" y="158" font-size="11" fill="#1E293B" font-family="monospace">softlockup_initialized</text>
    <text x="250" y="158" font-size="9" fill="#94A3B8">bool</text>
    <text x="15" y="176" font-size="11" fill="#1E293B" font-family="monospace">softlockup_count</text>
    <text x="210" y="176" font-size="9" fill="#94A3B8">unsigned int, sysfs</text>
    <line x1="10" y1="184" x2="310" y2="184" stroke="#BFDBFE" stroke-width="0.8"/>
    <text x="15" y="198" font-size="10" fill="#64748B">WATCHDOG_SOFTOCKUP_ENABLED = (1 &lt;&lt; 1)</text>
    <text x="15" y="212" font-size="10" fill="#64748B">SOFTLOCKUP_DELAY_REPORT = ULONG_MAX</text>
    <text x="15" y="226" font-size="10" fill="#64748B">NUM_SAMPLE_PERIODS = 5</text>
  </g>

  <!-- ========== Box 2: CPU Mask (Pink) ========== -->
  <g transform="translate(40,350)" filter="url(#sh)">
    <rect width="320" height="120" rx="8" fill="#fff" stroke="#BE185D" stroke-width="2"/>
    <rect width="320" height="30" rx="8" fill="url(#hMask)"/>
    <rect x="0" y="22" width="320" height="8" fill="#F9A8D4"/>
    <text x="160" y="20" text-anchor="middle" font-size="14" font-weight="bold" fill="#fff">CPU 掩码</text>
    <text x="160" y="45" text-anchor="middle" font-size="10" fill="#BE185D" font-weight="bold">控制哪些 CPU 运行 watchdog</text>
    <line x1="10" y1="52" x2="310" y2="52" stroke="#FBCFE8" stroke-width="0.8"/>
    <text x="15" y="68" font-size="11" fill="#1E293B" font-family="monospace">watchdog_cpumask</text>
    <text x="215" y="68" font-size="9" fill="#94A3B8">struct cpumask</text>
    <text x="15" y="86" font-size="11" fill="#1E293B" font-family="monospace">watchdog_allowed_mask</text>
    <text x="255" y="86" font-size="9" fill="#94A3B8">static cpumask</text>
    <text x="15" y="104" font-size="11" fill="#1E293B" font-family="monospace">watchdog_cpumask_bits</text>
    <text x="255" y="104" font-size="9" fill="#94A3B8">unsigned long*</text>
  </g>

  <!-- ========== Box 3: Per-CPU Timestamps (Green) ========== -->
  <g transform="translate(440,80)" filter="url(#sh)">
    <rect width="320" height="200" rx="8" fill="#fff" stroke="#059669" stroke-width="2"/>
    <rect width="320" height="30" rx="8" fill="url(#hPerCPU)"/>
    <rect x="0" y="22" width="320" height="8" fill="#34D399"/>
    <text x="160" y="20" text-anchor="middle" font-size="14" font-weight="bold" fill="#fff">Per-CPU 时间戳变量</text>
    <text x="160" y="45" text-anchor="middle" font-size="10" fill="#059669" font-weight="bold">每 CPU 独立 — DEFINE_PER_CPU</text>
    <line x1="10" y1="52" x2="310" y2="52" stroke="#A7F3D0" stroke-width="0.8"/>
    <text x="15" y="70" font-size="11" fill="#059669" font-weight="bold" font-family="monospace">watchdog_touch_ts</text>
    <text x="220" y="70" font-size="9" fill="#94A3B8">unsigned long</text>
    <text x="20" y="86" font-size="9" fill="#64748B">最后一次成功调度的时间戳</text>
    <text x="20" y="100" font-size="9" fill="#64748B">由 softlockup_fn → update_touch_ts 更新</text>
    <line x1="10" y1="110" x2="310" y2="110" stroke="#A7F3D0" stroke-width="0.8"/>
    <text x="15" y="128" font-size="11" fill="#059669" font-weight="bold" font-family="monospace">watchdog_report_ts</text>
    <text x="220" y="128" font-size="9" fill="#94A3B8">unsigned long</text>
    <text x="20" y="144" font-size="9" fill="#64748B">报告周期起始时间 / SOFTLOCKUP_DELAY_REPORT</text>
    <text x="20" y="158" font-size="9" fill="#64748B">由 touch API 或 update_report_ts 更新</text>
    <line x1="10" y1="168" x2="310" y2="168" stroke="#A7F3D0" stroke-width="0.8"/>
    <text x="15" y="186" font-size="11" fill="#059669" font-weight="bold" font-family="monospace">softlockup_touch_sync</text>
    <text x="250" y="186" font-size="9" fill="#94A3B8">bool</text>
  </g>

  <!-- ========== Box 4: hrtimer (Red) ========== -->
  <g transform="translate(840,80)" filter="url(#sh)">
    <rect width="320" height="200" rx="8" fill="#fff" stroke="#DC2626" stroke-width="2"/>
    <rect width="320" height="30" rx="8" fill="url(#hTimer)"/>
    <rect x="0" y="22" width="320" height="8" fill="#F87171"/>
    <text x="160" y="20" text-anchor="middle" font-size="14" font-weight="bold" fill="#fff">struct hrtimer (Per-CPU)</text>
    <text x="160" y="45" text-anchor="middle" font-size="10" fill="#DC2626" font-weight="bold">watchdog_hrtimer — 硬中断定时器</text>
    <line x1="10" y1="52" x2="310" y2="52" stroke="#FECACA" stroke-width="0.8"/>
    <text x="15" y="70" font-size="11" fill="#1E293B" font-family="monospace">.function</text>
    <text x="100" y="70" font-size="10" fill="#DC2626" font-weight="bold">= watchdog_timer_fn</text>
    <text x="15" y="88" font-size="11" fill="#1E293B" font-family="monospace">.base</text>
    <text x="100" y="88" font-size="10" fill="#64748B">CLOCK_MONOTONIC</text>
    <text x="15" y="106" font-size="11" fill="#1E293B" font-family="monospace">.mode</text>
    <text x="100" y="106" font-size="10" fill="#64748B">HRTIMER_MODE_REL_HARD</text>
    <line x1="10" y1="116" x2="310" y2="116" stroke="#FECACA" stroke-width="0.8"/>
    <text x="15" y="134" font-size="10" fill="#64748B">周期: sample_period (默认 4s)</text>
    <text x="15" y="150" font-size="10" fill="#64748B">回调返回 HRTIMER_RESTART 循环</text>
    <text x="15" y="166" font-size="10" fill="#64748B">运行在硬中断上下文</text>
    <line x1="10" y1="176" x2="310" y2="176" stroke="#FECACA" stroke-width="0.8"/>
    <text x="15" y="192" font-size="10" fill="#DC2626">每次触发检查 is_softlockup()</text>
  </g>

  <!-- ========== Box 5: completion (Orange) ========== -->
  <g transform="translate(440,330)" filter="url(#sh)">
    <rect width="320" height="140" rx="8" fill="#fff" stroke="#D97706" stroke-width="2"/>
    <rect width="320" height="30" rx="8" fill="url(#hComp)"/>
    <rect x="0" y="22" width="320" height="8" fill="#FBBF24"/>
    <text x="160" y="20" text-anchor="middle" font-size="14" font-weight="bold" fill="#fff">struct completion (Per-CPU)</text>
    <text x="160" y="45" text-anchor="middle" font-size="10" fill="#D97706" font-weight="bold">softlockup_completion — 同步机制</text>
    <line x1="10" y1="52" x2="310" y2="52" stroke="#FDE68A" stroke-width="0.8"/>
    <text x="15" y="70" font-size="11" fill="#1E293B" font-family="monospace">.done</text>
    <text x="100" y="70" font-size="10" fill="#64748B">计数器</text>
    <text x="15" y="88" font-size="11" fill="#1E293B" font-family="monospace">.wait</text>
    <text x="100" y="88" font-size="10" fill="#64748B">等待队列</text>
    <line x1="10" y1="98" x2="310" y2="98" stroke="#FDE68A" stroke-width="0.8"/>
    <text x="15" y="114" font-size="10" fill="#64748B">timer_fn 检查 completion_done() 后再触发</text>
    <text x="15" y="130" font-size="10" fill="#64748B">softlockup_fn 执行完后 complete()</text>
  </g>

  <!-- ========== Box 6: cpu_stop_work (Purple) ========== -->
  <g transform="translate(840,330)" filter="url(#sh)">
    <rect width="320" height="140" rx="8" fill="#fff" stroke="#7C3AED" stroke-width="2"/>
    <rect width="320" height="30" rx="8" fill="url(#hStop)"/>
    <rect x="0" y="22" width="320" height="8" fill="#A78BFA"/>
    <text x="160" y="20" text-anchor="middle" font-size="14" font-weight="bold" fill="#fff">struct cpu_stop_work (Per-CPU)</text>
    <text x="160" y="45" text-anchor="middle" font-size="10" fill="#7C3AED" font-weight="bold">softlockup_stop_work — CPU stop 工作项</text>
    <line x1="10" y1="52" x2="310" y2="52" stroke="#DDD6FE" stroke-width="0.8"/>
    <text x="15" y="70" font-size="11" fill="#1E293B" font-family="monospace">.fn</text>
    <text x="60" y="70" font-size="10" fill="#7C3AED" font-weight="bold">= softlockup_fn</text>
    <text x="15" y="88" font-size="11" fill="#1E293B" font-family="monospace">.arg</text>
    <text x="60" y="88" font-size="10" fill="#64748B">= NULL</text>
    <text x="15" y="106" font-size="11" fill="#1E293B" font-family="monospace">.list_node</text>
    <text x="120" y="106" font-size="10" fill="#64748B">链入 stopper 队列</text>
    <line x1="10" y1="116" x2="310" y2="116" stroke="#DDD6FE" stroke-width="0.8"/>
    <text x="15" y="132" font-size="10" fill="#64748B">由 stop_one_cpu_nowait() 提交</text>
  </g>

  <!-- ========== Box 7: IRQ Stats (Cyan) ========== -->
  <g transform="translate(40,520)" filter="url(#sh)">
    <rect width="370" height="170" rx="8" fill="#fff" stroke="#0891B2" stroke-width="2"/>
    <rect width="370" height="30" rx="8" fill="url(#hStat)"/>
    <rect x="0" y="22" width="370" height="8" fill="#67E8F9"/>
    <text x="185" y="20" text-anchor="middle" font-size="14" font-weight="bold" fill="#fff">中断风暴统计 (Per-CPU)</text>
    <text x="185" y="45" text-anchor="middle" font-size="10" fill="#0891B2" font-weight="bold">CONFIG_SOFTLOCKUP_DETECTOR_INTR_STORM</text>
    <line x1="10" y1="52" x2="360" y2="52" stroke="#A5F3FC" stroke-width="0.8"/>
    <text x="15" y="70" font-size="11" fill="#1E293B" font-family="monospace">cpustat_old[4]</text>
    <text x="200" y="70" font-size="9" fill="#94A3B8">u16, sys/softirq/hardirq/idle</text>
    <text x="15" y="88" font-size="11" fill="#1E293B" font-family="monospace">cpustat_util[5][4]</text>
    <text x="200" y="88" font-size="9" fill="#94A3B8">u8, 5 个采样周期利用率</text>
    <text x="15" y="106" font-size="11" fill="#1E293B" font-family="monospace">cpustat_tail</text>
    <text x="200" y="106" font-size="9" fill="#94A3B8">u8, 环形缓冲区索引</text>
    <text x="15" y="124" font-size="11" fill="#1E293B" font-family="monospace">snapshot_taken</text>
    <text x="200" y="124" font-size="9" fill="#94A3B8">bool, IRQ 快照标志</text>
    <line x1="10" y1="134" x2="360" y2="134" stroke="#A5F3FC" stroke-width="0.8"/>
    <text x="15" y="150" font-size="10" fill="#64748B">HARDIRQ_PERCENT_THRESH = 50%</text>
    <text x="15" y="164" font-size="10" fill="#64748B">NUM_HARDIRQ_REPORT = 5（Top N）</text>
  </g>

  <!-- ========== Box 8: Functions (interaction hub) ========== -->
  <g transform="translate(480,520)" filter="url(#sh)">
    <rect width="680" height="170" rx="8" fill="#fff" stroke="#475569" stroke-width="2"/>
    <rect width="680" height="30" rx="8" fill="#475569"/>
    <rect x="0" y="22" width="680" height="8" fill="#94A3B8"/>
    <text x="340" y="20" text-anchor="middle" font-size="14" font-weight="bold" fill="#fff">核心函数与数据交互</text>
    <text x="340" y="45" text-anchor="middle" font-size="10" fill="#475569" font-weight="bold">函数如何读写上述数据结构</text>
    <line x1="10" y1="52" x2="670" y2="52" stroke="#E2E8F0" stroke-width="0.8"/>

    <!-- Left column -->
    <text x="15" y="70" font-size="11" fill="#DC2626" font-weight="bold" font-family="monospace">watchdog_timer_fn()</text>
    <text x="15" y="84" font-size="9" fill="#64748B">读: watchdog_enabled, watchdog_report_ts, watchdog_touch_ts</text>
    <text x="15" y="96" font-size="9" fill="#64748B">写: softlockup_count; 调用 stop_one_cpu_nowait</text>

    <text x="15" y="116" font-size="11" fill="#059669" font-weight="bold" font-family="monospace">softlockup_fn()</text>
    <text x="15" y="130" font-size="9" fill="#64748B">写: watchdog_touch_ts, watchdog_report_ts; complete()</text>

    <!-- Right column -->
    <text x="360" y="70" font-size="11" fill="#2563EB" font-weight="bold" font-family="monospace">touch_softlockup_watchdog()</text>
    <text x="360" y="84" font-size="9" fill="#64748B">写: watchdog_report_ts = SOFTLOCKUP_DELAY_REPORT</text>

    <text x="360" y="104" font-size="11" fill="#2563EB" font-weight="bold" font-family="monospace">watchdog_enable(cpu)</text>
    <text x="360" y="118" font-size="9" fill="#64748B">初始化: hrtimer, completion, touch_ts</text>

    <text x="360" y="138" font-size="11" fill="#0891B2" font-weight="bold" font-family="monospace">update_cpustat()</text>
    <text x="360" y="152" font-size="9" fill="#64748B">读写: cpustat_old, cpustat_util, cpustat_tail</text>

    <text x="15" y="162" font-size="11" fill="#BE185D" font-weight="bold" font-family="monospace">is_softlockup(touch_ts, period_ts, now)</text>
    <text x="345" y="162" font-size="9" fill="#64748B">读: watchdog_enabled, watchdog_thresh → 判定超时</text>
  </g>

  <!-- ==================== Connection Paths ==================== -->

  <!-- Global -> Per-CPU timestamps: watchdog_thresh controls detection -->
  <path d="M360,180 L440,180" fill="none" stroke="#2563EB" stroke-width="2" marker-end="url(#aB)"/>
  <rect x="365" y="165" width="70" height="16" rx="3" fill="white" fill-opacity="0.95"/>
  <text x="400" y="177" text-anchor="middle" font-size="8" fill="#2563EB">阈值控制</text>

  <!-- Global -> hrtimer: sample_period -->
  <path d="M360,138 L360,138 L420,138 L420,66 L840,66 L840,100" fill="none" stroke="#2563EB" stroke-width="1.8" stroke-dasharray="5,3" marker-end="url(#aB)"/>
  <rect x="570" y="55" width="130" height="16" rx="3" fill="white" fill-opacity="0.95"/>
  <text x="635" y="67" text-anchor="middle" font-size="8" fill="#2563EB">sample_period 决定周期</text>

  <!-- hrtimer -> Per-CPU timestamps: reads -->
  <path d="M840,200 L800,200 L800,250 L760,250 L760,200" fill="none" stroke="#DC2626" stroke-width="1.8" marker-end="url(#aR)"/>
  <rect x="765" y="240" width="90" height="16" rx="3" fill="white" fill-opacity="0.95"/>
  <text x="810" y="252" text-anchor="middle" font-size="8" fill="#DC2626">timer_fn 读取</text>

  <!-- hrtimer -> completion: checks completion_done -->
  <path d="M840,380 L760,380" fill="none" stroke="#D97706" stroke-width="2" marker-end="url(#aO)"/>
  <rect x="769" y="369" width="65" height="16" rx="3" fill="white" fill-opacity="0.95"/>
  <text x="802" y="381" text-anchor="middle" font-size="8" fill="#D97706">检查完成</text>

  <!-- hrtimer -> cpu_stop_work: submits -->
  <path d="M1000,280 L1000,330" fill="none" stroke="#7C3AED" stroke-width="2" marker-end="url(#aP)"/>
  <rect x="944" y="296" width="115" height="16" rx="3" fill="white" fill-opacity="0.95"/>
  <text x="1001" y="308" text-anchor="middle" font-size="8" fill="#7C3AED">stop_one_cpu_nowait</text>

  <!-- cpu_stop_work -> Per-CPU timestamps: softlockup_fn writes -->
  <path d="M840,420 L800,420 L800,290 L760,290 L760,280" fill="none" stroke="#059669" stroke-width="2" stroke-dasharray="6,3" marker-end="url(#aG)"/>
  <rect x="730" y="295" width="115" height="16" rx="3" fill="white" fill-opacity="0.95"/>
  <text x="788" y="307" text-anchor="middle" font-size="8" fill="#059669">softlockup_fn 写入</text>

  <!-- cpu_stop_work -> completion: complete() -->
  <path d="M840,450 L760,450" fill="none" stroke="#D97706" stroke-width="1.8" stroke-dasharray="4,2" marker-end="url(#aO)"/>
  <rect x="772" y="439" width="60" height="16" rx="3" fill="white" fill-opacity="0.95"/>
  <text x="802" y="451" text-anchor="middle" font-size="8" fill="#D97706">complete</text>

  <!-- CPU mask -> Per-CPU: controls which CPUs -->
  <path d="M360,400 L440,400 L440,280" fill="none" stroke="#BE185D" stroke-width="1.8" marker-end="url(#aM)"/>
  <rect x="365" y="325" width="125" height="16" rx="3" fill="white" fill-opacity="0.95"/>
  <text x="428" y="337" text-anchor="middle" font-size="8" fill="#BE185D">决定哪些 CPU 运行</text>

  <!-- IRQ stats -> hrtimer: update_cpustat called from timer_fn -->
  <path d="M410,600 L440,600 L440,570 L480,570" fill="none" stroke="#0891B2" stroke-width="1.5" marker-end="url(#aC)"/>

  <!-- ==================== Legend ==================== -->
  <g transform="translate(40,730)">
    <rect width="1120" height="170" rx="8" fill="white" fill-opacity="0.95" stroke="#CBD5E1" stroke-width="1"/>
    <text x="20" y="22" font-size="13" font-weight="bold" fill="#1E293B">图例 — 数据结构分类与关系类型</text>

    <!-- Color legend -->
    <rect x="20" y="35" width="16" height="12" rx="3" fill="#EFF6FF" stroke="#2563EB" stroke-width="1.2"/>
    <text x="42" y="46" font-size="10" fill="#1E293B">全局控制变量（蓝）</text>
    <rect x="200" y="35" width="16" height="12" rx="3" fill="#ECFDF5" stroke="#059669" stroke-width="1.2"/>
    <text x="222" y="46" font-size="10" fill="#1E293B">Per-CPU 时间戳（绿）</text>
    <rect x="400" y="35" width="16" height="12" rx="3" fill="#FEF2F2" stroke="#DC2626" stroke-width="1.2"/>
    <text x="422" y="46" font-size="10" fill="#1E293B">hrtimer 定时器（红）</text>
    <rect x="580" y="35" width="16" height="12" rx="3" fill="#FEF3C7" stroke="#D97706" stroke-width="1.2"/>
    <text x="602" y="46" font-size="10" fill="#1E293B">completion 同步（橙）</text>
    <rect x="780" y="35" width="16" height="12" rx="3" fill="#F5F3FF" stroke="#7C3AED" stroke-width="1.2"/>
    <text x="802" y="46" font-size="10" fill="#1E293B">cpu_stop_work（紫）</text>
    <rect x="960" y="35" width="16" height="12" rx="3" fill="#ECFEFF" stroke="#0891B2" stroke-width="1.2"/>
    <text x="982" y="46" font-size="10" fill="#1E293B">中断统计（青）</text>

    <!-- Relation types -->
    <text x="20" y="72" font-size="11" font-weight="bold" fill="#475569">关系类型：</text>
    <line x1="20" y1="85" x2="70" y2="85" stroke="#2563EB" stroke-width="2" marker-end="url(#aB)"/>
    <text x="80" y="89" font-size="10" fill="#1E293B">控制 / 配置</text>
    <line x1="200" y1="85" x2="250" y2="85" stroke="#DC2626" stroke-width="2" marker-end="url(#aR)"/>
    <text x="260" y="89" font-size="10" fill="#1E293B">读取 / 检查</text>
    <line x1="400" y1="85" x2="450" y2="85" stroke="#059669" stroke-width="2" stroke-dasharray="6,3" marker-end="url(#aG)"/>
    <text x="460" y="89" font-size="10" fill="#1E293B">写入 / 更新</text>
    <line x1="600" y1="85" x2="650" y2="85" stroke="#7C3AED" stroke-width="2" marker-end="url(#aP)"/>
    <text x="660" y="89" font-size="10" fill="#1E293B">提交工作项</text>
    <line x1="800" y1="85" x2="850" y2="85" stroke="#D97706" stroke-width="1.8" stroke-dasharray="4,2" marker-end="url(#aO)"/>
    <text x="860" y="89" font-size="10" fill="#1E293B">同步通知</text>

    <!-- Key interaction summary -->
    <text x="20" y="115" font-size="11" font-weight="bold" fill="#475569">核心交互流：</text>
    <text x="20" y="132" font-size="10" fill="#374151">① hrtimer (硬中断) 每 sample_period 触发 watchdog_timer_fn</text>
    <text x="20" y="148" font-size="10" fill="#374151">② timer_fn 通过 cpu_stop_work 提交 softlockup_fn 到 stopper 线程（需要调度才能执行）</text>
    <text x="20" y="164" font-size="10" fill="#374151">③ softlockup_fn 更新 touch_ts/report_ts 并 complete; timer_fn 下一轮检查时间戳是否更新来判定 softlockup</text>
  </g>
</svg>
